<?xml version="1.0" encoding="utf-8"?>
<!-- Generator: Adobe Illustrator 24.0.1, SVG Export Plug-In . SVG Version: 6.00 Build 0)  -->
<svg version="1.1"
	 id="svg2" xmlns:cc="http://creativecommons.org/ns#" xmlns:dc="http://purl.org/dc/elements/1.1/" xmlns:inkscape="http://www.inkscape.org/namespaces/inkscape" xmlns:rdf="http://www.w3.org/1999/02/22-rdf-syntax-ns#" xmlns:sodipodi="http://sodipodi.sourceforge.net/DTD/sodipodi-0.dtd" xmlns:svg="http://www.w3.org/2000/svg"
	 xmlns="http://www.w3.org/2000/svg" xmlns:xlink="http://www.w3.org/1999/xlink" x="0px" y="0px" viewBox="0 0 1612.9 2221.1"
	 style="enable-background:new 0 0 1612.9 2221.1;" xml:space="preserve">
<style type="text/css">
	.st0{fill:#FF5555;}
	.st1{fill:#D83131;}
	.st2{fill:#2CA02C;}
	.st3{fill:#FFDD55;}
	.st4{fill:#FFD42A;}
	.st5{fill:#D4AA00;}
	.st6{fill:#D45500;}
	.st7{fill:#FF9955;}
	.st8{fill:#37C837;}
	.st9{fill:#AFE9AF;}
	.st10{fill:#0055D4;}
	.st11{fill:#0066FF;}
	.st12{fill:#5F8DD3;}
	.st13{fill:#AAFFAA;}
	.st14{fill:#87DE87;}
	.st15{fill:#FFE680;}
	.st16{fill:#FFEEAA;}
	.st17{fill:#D42A2A;}
	.st18{fill:#FF0000;}
	.st19{fill:#E64747;}
	.st20{fill:#AA0000;}
	.st21{fill:#FF7F2A;}
	.st22{fill:#FFB380;}
	.st23{fill:#FF6600;}
	.st24{fill:#55FF55;}
	.st25{fill:#5599FF;}
	.st26{fill:#80B3FF;}
	.st27{font-family:'Helvetica-Light';}
	.st28{font-size:24px;}
	.st29{fill:none;stroke:#646464;}
	.st30{fill:none;stroke:#646464;stroke-width:3;stroke-linejoin:round;}
</style>
<sodipodi:namedview  bordercolor="#666666" borderopacity="1" fit-margin-bottom="0" fit-margin-left="0" fit-margin-right="0" fit-margin-top="0" gridtolerance="10" guidetolerance="10" id="namedview149" inkscape:current-layer="layer3" inkscape:cx="757.47292" inkscape:cy="1725.24" inkscape:pageopacity="0" inkscape:pageshadow="2" inkscape:window-height="1001" inkscape:window-maximized="1" inkscape:window-width="1920" inkscape:window-x="-9" inkscape:window-y="-9" inkscape:zoom="0.57245266" objecttolerance="10" pagecolor="#ffffff" showgrid="false">
	</sodipodi:namedview>
<g id="rail" transform="translate(133.52406,-2.4897428)">
	<g id="minor_1_">
	</g>
	<g id="major_1_">
	</g>
</g>
<g id="layer1" transform="translate(107.81721)" inkscape:groupmode="layer" inkscape:label="Background">
	<path id="path1551" inkscape:connector-curvature="0" class="st0" d="M551.2,1393l-0.9-0.6l-6.2-2.5l-5.9-4.5l-12.4-2.8l-4.5-5.2
		l-1.4-6.9l-12.2-8.7l-4.3,5.5c0,0-13.9,1.8-15.1,2.1s-8.3,1.8-8.3,1.8l-9.4-0.9l-4.7-4.1l-8-7.1l-22.7,1.5l-11.2,5.6l-12.1,10
		l-8.9,5.6l-11.2,13.6l-3.8,13.6l-5.9,5.3l-8.6,1.5l-10,7.7l-3.2,7.1v5l1.8,10.3l19.8,16.8l2.1,23.9l5.3,4.4v5.6
		c0,0.3-0.2,0.5-0.6,0.6c-0.3,0.1-0.8,0.1-1.2,0.1c-0.9,0-1.8-0.1-1.8-0.1l-5.9,6.8l4.1,4.1l1.8,5.3l2.7,2.1l17.1-5.9l2.1-5.3
		l6.2-2.1l4.1,4.4l-0.9,7.4l-2.4,1.8l-0.9,5.3l7.7,5.9l6.2,2.7l-1.2,5.9l-10.6,1.8l-0.9,4.1l-5.9,7.1l2.1,4.7l-0.9,13.6l-4.4,9.7
		l-4.1,4.1l3,8.9l10.9,10.3v12.4l-3.8,3.5l-6.5-1.5l-1.2-5l-5.3-4.7l-6.2,3.8v5l4.1,5.3l-3,10.9l-7.7,1.2l-3.5,7.4l1.2,5.3l3.8,4.4
		l0.1,2.1l11.1-1.1l6.4,2.9l3.8,4.7l14,8.7l4.1,0.3l7.9-2.6l7.6-4.4l10.2-0.9l6.4,5.8l4.1-0.6l2.6-3.8h6.4l0.6,2.3l6.4,1.5l2.6-1.7
		l-1.7-3.5l-12.5-4.1v-15.1l4.7-7l4.1-0.3l3.5,2l16.9,2l8.4-4.1h7l4.4-6.4l0.6-9.3l-3.5-10.5l3.2-8.4l8.7-0.6l1.2,2h3.8l1.5-7.3
		l-3.5-2.9l1.5-2.9l0.3-3.2l-6.1-7.6l0.6-4.4l3.8-3.2l4.1-0.9l2.3,2.6l13.1,1.7l3.2-2l11.6-0.9l6.1,4.4l2.3,6.7l1.7,2.6l9.1,2.3
		v-0.1l5-3.9v-9.4l-2.2-3.3v-7.8l7.2-3.9l-1.7-17.8l-3.9-3.3l-0.6-11.7l2.2-11.7l5-4.4l-1.7-11.7l-3.9-1.7l-16.1,1.7l-5-3.3l-2.8-10
		v-4.4l-2.2-3.9l-7.8-1.1l-9.4-7.8l-6.7-0.6l-7.8-5.6l-6.1-11.7l0.6-6.7l3.9-7.8l-1.7-8.9l4.4-6.1l7.8-3.9l12.2-14.4L551.2,1393z"/>
	<path id="path1593" inkscape:connector-curvature="0" class="st1" d="M417,1693.1l-18.4-0.3l-8.3-5.4h-2.6l-6.3,3.4l-6.8-0.6
		l-4.8-3.7l-21.6-0.9l-6,4.3l1.1,9.1l-5.7,8l-5.1,3.7l0.9,14l4.3,13.9l4.8,5.3l-5.3,5.8l-13.4,5.8l-2.9,6.2l2.9,6.7l14.9,4.8
		l1.4,8.1l-4.8,14.4l-6.7,18.2l4.8,14.9l-1,20.6l-11,13.9l-2.4,13.9l1.9,7.2l3.4,1l8.6-6.7l3.4,1.4l4.8,13.4l-0.5,9.6l7.3,5.8l2.9,7
		l4.9,3.7h5.8l3.7,4.5l0.4,6.2l7,2.9l10.3-4.9l2.1-10.3h4.9l8.2-3.7l2.9-0.4l3.3-9l-4.9-5.3l2.1-12.7l2.1-4.5l1.2-5.3l4.9-2.1
		l1.6-6.2l11.1-2.9l4.1,4.1l5.3-1.2l2.5-7.4l-3.7-4.5l0.4-3.3l4.5-2.5l-0.4-8.2l3.3-9.5l4.9-0.4l6.2-4.9l7.4-1.2l0.8,3.7l7,0.8
		l3.7,5.3v5.3l3.9,4.4l8.7-5.8l13.7-3.7l20.3-1.7l14.5-4.6l3.7-7.9l-7-4.1l-10.8-3.3l-5.4,3.7l-15.7-2.5l-3.7-2.9v-13.7l-9.9-7.9
		l-30.7,0.4l-5.8,1.9l-20.7-16.4l4.6-3.7l0.4-7l-18.2-2.5l-8.7-8.3l2.5-5V1738l8.7-7l6.2-2.9l2.5-7.9L417,1693.1z"/>
	<path id="path1591" inkscape:connector-curvature="0" class="st2" d="M599.8,821.6l12.2-5.4h5.8l23,10.6l12.6,2.5l10.4,14.9
		l-0.2,6.2l5.4-0.2l1.4-3.1l3.3-1l11.2,9.5l22.2,0.8l2.3-2.9c0,0,21.6,1.3,22.4,1.3l-4.2-10l-13-8.5l-9.9-0.3l-12.2-14.7l-6.2-13.3
		l-1.1-10.2l-5.9-8.5l-0.8-14.7l4.5-5.9l2.3-19.2l2-4.5l2.5-11.6l3.7-11l4.5-3.1l5.4-4.5l6.8-0.6l9.5-3.3l2-5.1v-5.4l5.1-4l1.4-5.9
		l-2.5-3.4l-0.8-4l-3.4,1.3l-3.4-2.3l-4.3-1.1l0.4-13.8l-6-9.4l-7.5-1.1l-1.5-2.5l-3.2-0.4l-16.7,7.2l-3.9,4.2l-6.4,1.1l-1.9-3.2
		l-7.9-1.1l-3,1.9l-9.6-1.5l-8.3-5.3v-4.7l-3.2-2.5V645l7-7.2l2.4-0.6V634l-4.3-3l-7.7,0.2l-7.7-7.7l-0.9-5.1l2.4-3l0.9-21.9l-4-3.1
		l-5-1.8l-3.8-3.1l-5.2-0.1l-5.7,1.9l0.2,4l2.2,4.9l0,3.7l-6.6-0.6l-6.9,1.3l-10.1,0.8l-6.4-2.8l-4.5-4.7l-4.5-8.4l-8.9-2.2
		l-9.6,1.7l-6.9,3.2l-8.8-2l-16.8,10.1l-1.7,12.8l2,4l5.1,2.3l7.1,7.9l8.2-0.6c0,0,4.8,1.7,6,2.3c0.3,0.1,0.6,1,0.9,2.2
		s0.6,2.8,0.9,4.4c0.6,3.1,1,6.2,1,6.2l11.1,12.5v12.8l-1.7,6.8l-5.4,5.4l-10.8,1.1l-6,7.7l-5.1,2.6l-13.3-0.8l-3.7-4l-17.3-0.8v2.6
		l4.3,2.8l1.1,8.2l-1.4,2l0.6,4l6.8,1.4l5.1,7.1l3.4,1.1l3.1-1.1l9.9,6l17.3,18.4l4.8,7.9v6.5l4,6l3.7,0.6l3.4,2.6l1.7,10.8l5.7,5.4
		l5.4,1.4l2.3,3.1l-0.8,8.2l2.6,6.8l9.4,9.9l8.8,2.6l0.6,3.4l-2,5.4L599.8,821.6z"/>
	<path id="path1589" inkscape:connector-curvature="0" class="st3" d="M312.3,943.7l14.3-2.5l6.6-4.2l13.2,1.9l3.7-2.6l-2.8-6.1
		l5.2-0.9l6.1-4.2l7.5,7.5l5.6,0.5l8,6.6l10.4,0.5l6.6,10.8l-2.4,10.3l-2.8,2.4l-1.4,5.6l10.3,6.6l6.6,7.5l10.4,3.8h9.4l12,5.8
		l5.5-12.7l5.4-18.5v-6.9l9.6-11.9l14.6-12.7l16.2-19.2l5-11.2v-9.6l6.5-8.1l8.8-8.1l1.2-7.7v-9.6l9.2-6.2l10.8,1.9l20.8-3.5
		l8.8-7.7l2.6-14.1l-4.4-6l-13.5-6.6l-1.6-2.7l-2.9,0.4l-6.6,5.7l-6.8,0.8l-5.9-5.1l-3.7-12.7l-0.6-6.6l-8.6-8.8l-8.6-1l-10,0.4
		l-9.6-2.1l-1.8-3.3l-7-4.1l-16.2,0.6l-8.2-0.6l-2-3.1l-3.3-2.2l-6.6-1.2l-6.8,3.6l-6.8,6.4l-4.3,6.1v12.5l-5.4,6.8l-7.9,1.1
		l-4.3,3.2l1.4,14.3l-3.2,6.4l-5.4,3.2l-16.8,11.1l-0.4,8.2l-2.9,2.5l-23.9,8.6l-12.1,6.4l-9.7,10.1l-7,1.9l-3.5,3.5l-1.2,10.9
		l-5.4,16.3l-3.6,11.4l0.4,6.2l2.5,4.9L312.3,943.7z"/>
	<path id="path1587" inkscape:connector-curvature="0" class="st4" d="M422.7,1153.3l-5.5-0.1l-8.9-2.8l-1.4-3.3h-4.7l-2.8,4.2
		l-2.8-1.9l-1.4-9.4l-6.6-4.2l0.5-5.6l5.2-9.9v-17.4l-5.6-8.9h-4.7l-8,3.3l-2.4,3.8l-9.9,0.5l-4.2-2.4H357l-10.3,6.6l-10.8-0.5
		l-4.2-1.9l-8.9-0.9l-3.3,5.2l-6.1,0.9l-7.8-8.7l-6.6-0.3l-12,9.3l-10.1,4.3l-10.5-1.6l-3.9,4.3l-1.6,11.3l-2.7,1.9v2.3l8.9,8.2
		l1.9,14.8l-6.6,3.1l-10.9,16.7l-17.1,8.5l-10.5,1.9l-13.2,15.9l-2.7,11.3v12.8l5.4,1.9l4.3,5.4l5.8,0.4l6.2-4.7h8.5l3.5,4.7h7.4
		l5-4.3l5.4-0.4l1.2,5l13.2,10.9l1.9,8.5l-5,5l-5.4,1.2l-3.9,6.2l6.2,10.1l0.8,3.1l-0.8,9.7l14.6,1l4.8,6.6l10,5.2l16.6,3.1
		l33.5-11.4l2.1-12.8l1.4-13.5l11.4-7.2l15.2-7.3l16.4-0.2l15.1-19.3l10.8-19.8l2.4-16.9L422.7,1153.3z"/>
	<path id="path1585" inkscape:connector-curvature="0" class="st5" d="M452.6,1101.4l-4.2-6.9l0.8-12.3l11.9-4.6l0.8-7.7l-6.9-15
		l-26.2-15l-0.8-11.9l5.8-17.7l4.9-17.3l-12-5.8h-9.4l-10.4-3.8l-6.6-7.5l-10.3-6.6l1.4-5.6l2.8-2.4l2.4-10.3l-6.6-10.8l-10.4-0.5
		l-8-6.6l-5.6-0.5l-7.5-7.5l-6.1,4.2l-5.2,0.9l2.8,6.1l-3.7,2.6l-13.2-1.9l-6.6,4.2l-14.3,2.5l0.5,2l-0.8,13.2l-2.3,1.6v3.5l5.8,7
		l1.2,8.5l-0.4,12.4l-1.9,1.2l2.3,5.4l-0.4,17.9l-3.5,7.4l-1.9,13.2l3.5,8.2l8.5,5.8l1.2,10.1l-3.9,3.5l-7,1.6l-2.3,5l-2.7,17.5
		l-2.7,11.1l7.8,8.7l6.1-0.9l3.3-5.2l8.9,0.9l4.2,1.9l10.8,0.5l10.3-6.6h2.4l4.2,2.4l9.9-0.5l2.4-3.8l8-3.3h4.7l5.6,8.9v17.4
		l-5.2,9.9l-0.5,5.6l6.6,4.2l1.4,9.4l2.8,1.9l2.8-4.2h4.7l1.4,3.3l8.9,2.8l5.5,0.1l0.2-10l5.2-9.4l7.5-5.2l15.5-14.1L452.6,1101.4z"
		/>
	<path id="path1583" inkscape:connector-curvature="0" class="st6" d="M626.8,980l-11.5-2.4l-9.6,4.1h-6.6l-2.5-8.8l1.9-4.4
		l-2.2-6.6l-12.3-1.6l-4.1-5.2v-2.7l-11.8-9.8l-9,0.5l-5.2-2.2v-8.2l3.3-3.3l0.8-9.6l-6.3-2.7l-5.7,3l-6.6-0.3L525,909.2l-15.6-1.4
		l-6.8,4.4H496l-6.1-1.3l-16.2,19.2l-14.6,12.7l-9.6,11.9v6.9l-5.4,18.5l-5.5,12.7l-4.9,17.3l-5.8,17.7l0.8,11.9l26.2,15l6.9,15
		l-0.8,7.7l-11.9,4.6l-0.8,12.3l4.2,6.9l9.7,6.7h26.3l10.4-4l8,0.5l7,5.5l3.5,0.5l5.2-1l5.9-5.2l10.8-3.8l11.1-6.9l3.8-6.6l1-8.3
		l3.1-4.5l7.3-5.2l4.9-6.2l0.3-5.6l7.3-12.5l-2.1-8.7l-2.4-4.2l18.8-36.8l12.2-2.1l15.6-7.6L626.8,980z"/>
	<path id="path1581" inkscape:connector-curvature="0" class="st7" d="M869.2,853.4l-6-1.2l-7.6,0.8l-9.9,4.8l-18.7,2l-13.5,9.9
		l-9.5,0.8l-7.2-4.4l-18.3-7.6h-8.8l-10.3-1.6l-4.4-3.6l-7.2,0.4l-9.2,2.8l-6.8-1.7c-0.8,0-22.4-1.3-22.4-1.3l-2.3,2.9l-22.2-0.8
		l-11.2-9.5l-3.3,1l-1.4,3.1l-5.4,0.2l0.2-6.2l-10.4-14.9l-12.6-2.5l-23-10.6H612l-12.2,5.4l-11.2,4.9l-5.2,4.6l-4.6,0.4l-3.1-1.7
		l-12-2.5l-2.6,14.1l-8.8,7.7l-20.8,3.5l-10.8-1.9l-9.2,6.2v9.6l-1.2,7.7l-8.8,8.1l-6.5,8.1v9.6l-5,11.2l6.1,1.3h6.6l6.8-4.4
		l15.6,1.4l14.5,10.7l6.6,0.3l5.7-3l6.3,2.7l-0.8,9.6l-3.3,3.3v8.2l5.2,2.2l9-0.5l11.8,9.8v2.7l4.1,5.2l12.3,1.6l2.2,6.6l-1.9,4.4
		l2.5,8.8h6.6l9.6-4.1l11.5,2.4l14.5-11.8l5.9-2.1h5.2l1.7,4.5l-9,11.5l0.3,8l5.6,4.9h19.4l4.2,2.4l2.8,4.2h4.2l1-2.1l12.8-4.2
		l3.1-2.8h3.5l2.4,2.4l8,1l12.5-11.5l14.6-6.3l9-1l9.4-5.2l12.2-0.7l8,1.4l11.5-4.9l3.5-12.5l1-18.4l-7.3-12.5l1-5.9l5.6-3.1
		l17.4,1.4l3.5,0.7l10.8-2.8l10.4-6.6l4.5-2.8l3.5,3.1l3.5-1l5.9,1.7l12.2-11.6l1.2-7.2l-2.8-8.8l4.8-8.4l1.2-15.1V853.4z"/>
	<path id="path1579" inkscape:connector-curvature="0" class="st8" d="M863.1,713.3l-6.4-2.7l-3.1-2.9h-7l-28.5,5.2l-2.5,1l-3.7,0.4
		l-2.7,2.9l-2.9,7.8l-5,6l-1.9,0.4l-3.5-3.1l-18.2-10.7l-3.7-10.1v-7.6l2.5-4.3l2.9-10.3l1.9-1.6l-0.6-4.7l-1.4-0.8l-1.4-2.9l-7.4-1
		l-6,4.3l-4.7,8.9l-6.8,1l-5.6-2.7l-2.5-3.5l-18.3-1.6l-1.9,2.3l0.8,4l2.5,3.4l-1.4,5.9l-5.1,4v5.4l-2,5.1l-9.5,3.3l-6.8,0.6
		l-5.4,4.5l-4.5,3.1l-3.7,11l-2.5,11.6l-2,4.5l-2.3,19.2l-4.5,5.9l0.8,14.7l5.9,8.5l1.1,10.2l6.2,13.3l12.2,14.7l9.9,0.3l13,8.5
		l4.2,10l6.8,1.7l9.2-2.8l7.2-0.4l4.4,3.6l10.3,1.6h8.8l18.3,7.6l7.2,4.4l9.5-0.8l13.5-9.9l18.7-2l9.9-4.8l7.6-0.8l6,1.2l8.6-5.3
		l11.3-5.3l9.8,0.8l7.2-4.5l6,0.8l4.9,6.8l18.4,5.6l6.8-4.9l17.3-1.5v-4.1l-1.9-4.9l-7.2-5.6l-1.5-4.5l1.1-4.9l-4.1-1.5l-4.9,3
		l-7.2-6.4l0.8-13.5l-1.5-6L914,776.6h-9l-2.3,3.4l-5.3-0.8l-6-10.9l-3.4-16.6l-6.8-2.6l-7.9-0.8l-9.4-10.9L863.1,713.3z"/>
	<path id="path1577" inkscape:connector-curvature="0" class="st9" d="M900.3,533.7l-12.1,0.2l-3.9,1.4l-4.6,6l-5.3,2.1l-2.5-1.4
		l-11.6-6l-0.4-15.1l-10.9-9.8l-4.2,1.1l-5.3,6l-6-2.1l-10.9-8.1l-1.1-10.2l-12.3-5.6l-14.1-0.7l-19,4.9l-6.3-2.8l-9.5-8.8
		l-1.4-14.1l4.2-8.8l-1.1-13.4l-7.7-8.2l-5.4-1l-1.3-1.4l-2.4-0.4l-1.8,2.1l-9.6,0.1l-3.4,2.6l-11.5,7.8l-2.7-0.3l-8.5-9.5h-9.8
		l-17,3l-4.4,6.8l-4.5,8.4l-22.8-0.6l-4.5,6.6l-9.6,6.6l-6.6,9.3l-1.3,5.5l-1.5,1.7l-1.3,7.4l1.5,6.8l5.6,5.9l2.6,3l-0.9,4l-4.5,7.2
		l-3.2,2.6l-0.2,4l10.2,7.9l0.6,4.7l-2.3,5.3l-0.2,5.3l4.3,5.5l23.1,1.1l0.6,8.5l-4.1,2.3l0.2,3.4l2.3,3l-1.9,4.9l-3.8,0.4l-4.7,6
		L642,586l-0.8-2.1l-3-0.4l-7,3.6l-4.1,6.2l-0.9,21.9l-2.4,3l0.9,5.1l7.7,7.7l7.7-0.2l4.3,3v3.2l-2.4,0.6l-7,7.2v4.9l3.2,2.5v4.7
		l8.3,5.3l9.6,1.5l3-1.9l7.9,1.1l1.9,3.2l6.4-1.1l3.9-4.2l16.7-7.2l3.2,0.4l1.5,2.5l7.5,1.1l6,9.4l-0.4,13.8l4.3,1.1l3.4,2.3
		l3.4-1.3l1.9-2.3l18.3,1.6l2.5,3.5l5.6,2.7l6.8-1l4.7-8.9l6-4.3l7.4,1l1.4,2.9l1.4,0.8l0.6,4.7l-1.9,1.6l-2.9,10.3l-2.5,4.3v7.6
		l3.7,10.1l18.2,10.7l3.5,3.1l1.9-0.4l5-6l2.9-7.8l2.7-2.9l3.7-0.4l2.5-1l28.5-5.2h7l3.1,2.9l6.4,2.7l9.2-15.1l1.3-12l8.4-9.3
		l3.6-8.4l-2.7-12.9l7.1-25.7l12.4-11.5l2.2-7.1l-0.9-10.7l4.9-15.1v-12l-7.5-8.9l-1.3-7.5l3.1-6.2l-3.1-9.3L900.3,533.7z"/>
	<path id="path1575" inkscape:connector-curvature="0" class="st10" d="M956,370.7l-5.2,3l-9.1,0.4l-3.9-3l-7.8-0.4l-6,10.3l0.4,9.5
		l6,12.5l-4.3,1.7l-11.6,0.9l-6.5,4.7l2.2,3.9l2.2,7.8l-5.2,2.6l-5.6-4.7l-6.5,0.9l-6.9,3.4h-15.5c-0.4,0-1-0.3-1.5-0.7
		s-1.2-0.9-1.7-1.5c-1.1-1.1-1.9-2.2-1.9-2.2s-4.1-0.1-8.4-0.2s-8.8-0.1-9.7,0.2s-1.7,0.8-2.4,1.2s-1.1,0.9-1.1,0.9l-11.2,2.6
		l-0.4,3.4l12.9,6.5l15.1,2.2l1.3,7.3l-16,7.8l-12.9,21.6l-7.8,16.4l-3.5,6.7l-1.8,1.3l1.1,10.2l10.9,8.1l6,2.1l5.3-6l4.2-1.1
		l10.9,9.8l0.4,15.1l11.6,6l2.5,1.4l5.3-2.1l4.6-6l3.9-1.4l12.1-0.2l10.6-10.3l6.9-2.9l7.9,1.4l17.2-1l13.6-6l12.2-1.2l4.5,2.1
		l13.8,0.2l11.9,9.5l0.7,9.1l-0.5,10.7l12.4,10.8l13.9-3.1l12.2-9.2l15.3-3.8l7.6,6.1l17.5,0.8l18.3,19.1l11.4-1.5v-7.6l-11.4-20.6
		l-3.1-17.5l3.8-8.4v-5.3l-17.5-8.4l-2.3-10.7l-25.2-6.9l-1.5-16l-6.1-16l6.9-11.4l6.1-22.1l-1.5-6.1l-9.2-3.1v-6.1l-2.3-7.1
		l-2.6-8.6l-0.9-11.6l-4.3-7.8l-12.5-6l-12.9-0.9l-7.3-3l-2.6-6.5l-4.3,0.4l-9.1,7.3v12.9l-1.7,20.7l-9.1,3.4l-10.8-4.3l-4.3-9.5
		L956,370.7z"/>
	<path id="path1573" inkscape:connector-curvature="0" class="st11" d="M714.9,172.7l-2.4,6.4l0.4,4.9l4.9,4.6l8.1,0.4l12.7,7
		l3.9,9.1l-1.1,10.2l-5.6,5.6v4.6l4.9,4.6l1.1,13l13.4,18.6l1.4,15.8l-1.4,9.1l0.7,6.7l6,5.6l25.7,7.4l1.8,6l-1.1,18.3l-2.8,2.8
		l2.8,7l-1.4,7.7l-10.2,5.6L768,356l-5.6,7l0.4,7.4l-2.8,8.8l-5.3,2.5l-3.2,6l0.7,13l1.4,14.8l5.3,9.5l-0.4,7.4l-3.8,8l7.7,8.2
		l1.1,13.4l-4.2,8.8l1.4,14.1l9.5,8.8l6.3,2.8l19-4.9l14.1,0.7l12.3,5.6l1.8-1.3l3.5-6.7l7.8-16.4l12.9-21.6l16-7.8l-1.3-7.3
		l-15.1-2.2l-12.9-6.5l0.4-3.4l11.2-2.6c0,0,0.4-0.4,1.1-0.9s1.5-1,2.4-1.2c0.9-0.2,5.4-0.2,9.7-0.2c4.3,0.1,8.4,0.2,8.4,0.2
		s0.9,1.1,1.9,2.2c0.5,0.5,1.1,1.1,1.7,1.5s1.1,0.7,1.5,0.7h15.5l6.9-3.4l6.5-0.9l5.6,4.7l5.2-2.6l-2.2-7.8l-2.2-3.9l6.5-4.7
		l11.6-0.9l4.3-1.7l-6-12.5l-0.4-9.5l6-10.3l7.8,0.4l3.9,3l9.1-0.4l5.2-3l-3.4-4.7l-13.4-1.7l-2.6-14.7l3-12.5l-3.9-8.2l8.6-6.9h7.8
		c0,0,0.3,0.6,1.1,1.3c0.4,0.3,0.9,0.6,1.5,0.9c0.6,0.2,1.3,0.4,2.2,0.4h15.5v-4.7l-5.2-8.2l3-8.6l9.9-3.4v-3.9l-3.9-4.3l-0.4-7.8
		l3-3.9l-1.7-11.6l-12.5,11.2l-10.3,1.7l-2.2-10.3l3.9-5.2l0.9-6.5l-4.7-4.7l-12.1,3.4h-9.9l-5.6,2.2l-5.6-4.7l5.2-9.9v-10.3
		l-6.5-4.7l3-6.9V209l-3-1.7l3.5-6.5l-4.7-3.9l-6.9,4.7h-11.2l-9.9-6.5l-9.1,0.9l-11.6-9.5l-4.7-7.8l-3.4-1.7l-1.3-7.3l-3-1.7
		l-7.3,9.1l-14.7,2.6l-6-9.5h-9.1l-0.9-8.2l-6.9-7.3l-22,0.9l-10.3-2.6l-9.2-6l0,0l1.1,7.2l-4.4,7.8l-16.1,7.2l-6.1-0.6l-7.2,3.9
		l0.6,6.1l-5,1.7l-12.8-0.6L714.9,172.7z"/>
	<path id="path1571" inkscape:connector-curvature="0" class="st12" d="M618.7,396.7l2.5,3.8l3.6,2.7l7.2,9.4l-1.8,4.9l1.8,9.4
		l10.7,6.7v4.5l-2.2,4l4,9.9l5.1,5.6l22.8,0.6l4.5-8.4l4.4-6.8l17-3h9.8l8.5,9.5l2.7,0.3l11.5-7.8l3.4-2.6l9.6-0.1l1.8-2.1l2.4,0.4
		l1.3,1.4l5.4,1l3.8-8l0.4-7.4l-5.3-9.5l-1.4-14.8l-0.7-13l3.2-6l5.3-2.5l2.8-8.8l-0.4-7.4l5.6-7l8.4-2.1l10.2-5.6l1.4-7.7l-2.8-7
		l2.8-2.8l1.1-18.3l-1.8-6l-25.7-7.4l-6-5.6l-0.7-6.7l1.4-9.1l-1.4-15.8l-13.4-18.6l-1.1-13l-4.9-4.6V221l5.6-5.6l1.1-10.2l-3.9-9.1
		l-12.7-7l-8.1-0.4l-4.9-4.6l-0.4-4.9l2.4-6.4l-0.5-0.9l-4.4-0.6l-12.2,4.4l-17.8-0.6l-3.9-5l-22.8-0.6l-7.8,5.6l-11.1-5.6l-5-7.2
		h-3.9l-7.8,7.2l-16.7,2.2l-16.1-5l-3.3-5.6l-10.5-4.4l-16.7-0.6l-3.3-3.3l-7.2,2.8l-3.9,6.7l-16.7,8.3l-8.9-0.6l-3.3,3.3l-7.8-0.6
		l-3.3-4.4l-5-1.1l-4.4-3.3V158c0,0-5.5-6.1-8.3-10s-11.1-6.1-11.1-6.1l-4.4-7.2l-5,2.8l-3.9,5.5l-7.2,7.2l5,12.8l3.3,3.3l1.1,16.7
		l4.4,6.7l7.8,1.7l4.4,9.4v8.9l-11.7,7.2l-13.3,11.7l-5.6,14.4l-5,0.6l-3.3,3.3v6.7l12.8,4.4l2.2,16.1l8.9,4.4l3.9-1.7l2.8-6.7
		l11.7-2.8l11.1-11.7h6.7l6.1,7.2l8.9-2.2l4.4,10.5l16.1,2.2l6.7-5.6l8.9,0.6l6.1,5l1.1,12.8l7.8,2.8l2.2,8.3v7.2l10.5,2.2l4.4,7.2
		l8.9-0.6l3.3-2.8h6.7l3.3,6.1l6.1,6.7l6.1,0.6l5.6,11.1h7.2l6.1,4.4l-1.1,8.9l-3.9,5l-3.9-3.3L615,368.3l-0.6,20l5,6.7L618.7,396.7
		z"/>
	<path id="path1569" inkscape:connector-curvature="0" class="st13" d="M486.9,557.8l-0.2,5.1l0.8,3.1l6.5,9.6l3.7,1.7l4.5-2
		l4.8,5.7l0.6,9.4l8.2,5.7l16.8-10.1l8.8,2l6.9-3.2l9.6-1.7l8.9,2.2l4.5,8.4l4.5,4.7l6.4,2.8l10.1-0.8l6.9-1.3l6.6,0.6l0-3.7
		l-2.2-4.9l-0.2-4l5.7-1.9l5.2,0.1l3.8,3.1l5,1.8l4,3.1l4.1-6.2l7-3.6l3,0.4l0.8,2.1l7.9,0.6l4.7-6l3.8-0.4l1.9-4.9l-2.3-3l-0.2-3.4
		l4.1-2.3l-0.6-8.5l-23.1-1.1l-4.3-5.5l0.2-5.3l2.3-5.3l-0.6-4.7l-10.2-7.9l0.2-4l3.2-2.6l4.5-7.2l0.9-4l-2.6-3l-5.6-5.9l-1.5-6.8
		l1.3-7.4l1.5-1.7l1.3-5.5l6.6-9.3l9.6-6.6l4.5-6.6l-5.1-5.6l-4-9.9l2.2-4v-4.5l-10.7-6.7l-1.8-9.4l1.8-4.9l-7.2-9.4l-3.6-2.7
		l-2.5-3.8l-2.5,5.5l-6.7,6.1h-7.2l-6.1-4.4l-8.3,3.3l-6.1,8.3l-11.7,2.2l-6.7-2.2l-13.3,7.2l-1.1,8.9l5,14.4l-4.4,8.9l-5.5,3.9
		l-12.8,17.8l-19.4,6.1l-3.9-3.3l-8.3,3.9l0.6,16.7l7.2,8.3l-0.6,12.8l-7,5.5l-4.9,2.4v6.4l3.4,3.1v5.8c0,0-4,2.1-5.2,2.7
		s-0.3,5.5-0.3,5.5l3.4,4.6l-0.3,0.9L486.9,557.8L486.9,557.8z"/>
	<path id="path1567" inkscape:connector-curvature="0" class="st14" d="M408.8,610.2l6.3,5.5l8.2,10.3l5.3,11.7l-2.3,17.3l-3.8,7
		l2.9,9.4l10.5,5.6l2.6,6.7l0.6,15.5l8.8,14.6l-1.5,10.5l-9.7,4.4v4.4l2.9,3.2v10.8l-3.8,2.9l-0.1,18.7l6.6,1.2l3.3,2.2l2,3.1
		l8.2,0.6l16.2-0.6l7,4.1l1.8,3.3l9.6,2.1l10-0.4l8.6,1l8.6,8.8l0.6,6.6l3.7,12.7l5.9,5.1l6.8-0.8l6.6-5.7l2.9-0.4l1.6,2.7l13.5,6.6
		l4.4,6l12,2.5l3.1,1.7l4.6-0.4l5.2-4.6l11.2-4.9l-7.1-8l2-5.4l-0.6-3.4l-8.8-2.6l-9.4-9.9l-2.6-6.8l0.8-8.2l-2.3-3.1l-5.4-1.4
		l-5.7-5.4l-1.7-10.8l-3.4-2.6l-3.7-0.6l-4-6v-6.5l-4.8-7.9l-17.3-18.4l-9.9-6l-3.1,1.1l-3.4-1.1l-5.1-7.1l-6.8-1.4l-0.6-4l1.4-2
		l-1.1-8.2l-4.3-2.8v-2.6l17.3,0.8l3.7,4l13.3,0.8l5.1-2.6l6-7.7l10.8-1.1l5.4-5.4l1.7-6.8v-12.8l-11.1-12.5c0,0-0.4-3-1-6.2
		c-0.3-1.6-0.6-3.1-0.9-4.4c-0.3-1.2-0.6-2.1-0.9-2.2c-1.1-0.6-6-2.3-6-2.3l-8.2,0.6l-7.1-7.9l-5.1-2.3l-2-4l1.7-12.8l-8.2-5.7
		l-0.6-9.4l-4.8-5.7l-4.5,2l-3.7-1.7l-6.5-9.6l-0.8-3.1l0.2-5.1l-1.5-3.3l-11,4.6l-3.1,6.7l-5.5,3.4l-1.8,5.8l1.5,9.5l-2.7,2.4
		l-3.1-0.6l-3.4,2.4v5.8l-4.3,3.4l-3.1-1.2l1.2-3.4l-4-2.7l-7,1.2l-4.3,7H432l-2.1-5.5l-4.3,2.1l-3.7,8.2l-6.1,0.9L408.8,610.2
		L408.8,610.2z"/>
	<path id="path1565" inkscape:connector-curvature="0" class="st15" d="M219.1,825.2l2.3,2.9l6.4,3.2l12.9,0.4l4.3,2.1l8.6,3.9
		l12.9,2.9l2.5,2.1v4.6l2.9,6.4l9.6,8.2l6.1,2.5l19.6,1.8l2.5,1.8h7.1l3.2-3.6h7.5l1.4,2.5l8.3,2.1l12.1-6.4l23.9-8.6l2.9-2.5
		l0.4-8.2l16.8-11.1l5.4-3.2l3.2-6.4l-1.4-14.3l4.3-3.2l7.9-1.1l5.4-6.8v-12.5l4.3-6.1l6.8-6.4l6.8-3.6l0.1-18.7l3.8-2.9v-10.8
		l-2.9-3.2v-4.4l9.7-4.4l1.5-10.5l-8.8-14.6l-0.6-15.5l-2.6-6.7l-10.5-5.6l-2.9-9.4l3.8-7l2.3-17.3l-5.3-11.7l-8.2-10.3l-6.3-5.5
		l-5.4,7.2l-7.9,3.4v5.2h-3.4l-7-3.7l-3.1-11.9l1.8-5.5l-4.6-4l-13.1,1.2l-1.8-1.8L360,604l2.1,6.1l3.1,2.7l-1.5,4.6l-3.4-0.6
		l-0.9-3.4l-3.7-2.7v-1.5l-4.3-1.2l-3.7,3.1l-1.8,7l-6.4,3.4l-1.8,6.1l-4,0.6l-5.8-4.9l-1.5-3.7l0.6-7.6l-2.7-1.2l-5.8,2.4l-2.7,6.4
		l-7.9,5.8l-5.5,0.6l-5.8,7.9l3.4,15.9l3.1,3.7l-0.3,17.4l-1.5,5.8l-3.4,4.3l0.3,5.5l-4.9,3.7l-6.4,1.8l-3.1,4.3l-3.1-1.5l-4.6,2.4
		l1.2,6.1l2.4,3.1l-2.4,1.2l-6.1,6.7l0.3,6.7l4.3,4.6l-2.4,3.1l-3.4,1.8l-3.7-0.9l-3.7,2.1l1.2,4.6l5.5,3.4v3.7l-3.7,3.4l1.5,7
		l-2.4,3.7h-6.7l-2.7-14l0.3-4.9l-4.3-4.6l-8.5,0.9l-5.5,4.3l-1.2,6.7l-3.7,1.8l-1.8,4.9l-0.6,13.4l-4.6,6.7v6.7l-6.1,6.1l-5.2,1.8
		l0.3,2.7l2.4,1.5v7.3c0,1.5-3.4,6.7-3.4,6.7l3.1,8.5l3.4,3.4L219.1,825.2z"/>
	<path id="path1563" inkscape:connector-curvature="0" class="st16" d="M120.9,1384.8l8.2-1.8l7.4-0.8l10.1-3.9l12.4-12.4l23.3-12
		l7.4-3.1l25.6-29.9l10.1-5.4l9.3-13.2l19.4-12l13.6-2.7l0.8-9.7l-0.8-3.1l-6.2-10.1l3.9-6.2l5.4-1.2l5-5l-1.9-8.5l-13.2-10.9
		l-1.2-5l-5.4,0.4l-5,4.3h-7.4l-3.5-4.7h-8.5l-6.2,4.7l-5.8-0.4l-4.3-5.4l-5.4-1.9v-12.8l2.7-11.3l13.2-15.9l10.5-1.9l17.1-8.5
		l10.9-16.7l6.6-3.1l-1.9-14.8l-8.9-8.2v-2.3l2.7-1.9l1.6-11.3l3.9-4.3l10.5,1.6l10.1-4.3l12-9.3l6.6,0.3l2.7-11.1l2.7-17.5l2.3-5
		l7-1.6l3.9-3.5l-1.2-10.1l-8.5-5.8l-3.5-8.2l1.9-13.2l3.5-7.4l0.4-17.9l-2.3-5.4l1.9-1.2l0.4-12.4l-1.2-8.5l-5.8-7v-3.5l2.3-1.6
		l0.8-13.2l-0.5-2l-2.6-9.3l-2.5-4.9l-0.4-6.2l3.6-11.4l5.4-16.3l1.2-10.9l3.5-3.5l7-1.9l9.7-10.1l-8.3-2.1l-1.4-2.5h-7.5l-3.2,3.6
		h-7.1l-2.5-1.8l-19.6-1.8l-6.1-2.5l-9.6-8.2l-2.9-6.4v-4.6l-2.5-2.1l-12.9-2.9l-8.6-3.9l-4.3-2.1l-12.9-0.4l-6.4-3.2l-2.3-2.9
		l-0.4,3.6l-2.4,1.2v10.7l-1.8,4.3l-4,4.6l-0.9,5.8l-4.6,1.2l-7.3-1.8l-0.9-3.7h-4.6l-5.8,5.5l-4.3,11.9c0,0,0.6,22.6,0.6,24.1
		s-2.4,6.1-2.4,6.1l-0.6,20.1l5.8,11.3l-1.5,15.6l-1.5,8.5l-8.2,7.6l0.3,14.6l-3.4,1.5l-2.1,5.2l-4,4.9v3.7l5.5,5.5l-4,7l-4.6,1.2
		l-2.1,7.3l-9.5,11.6l-6.1,1.5l-9.8,6.7l-12.2,1.2l-10.4,8.8l-5.8,0.3l-10.1,11.6v4.3l3.7,2.1v3.4l-1.8,0.9l-0.3,11l5.5,3.7
		l-4.3,12.2l-5.5,3.4v6.1l5.2,4.9l1.5,11.3l8.2,5.8l15.6,0.9l4.9,6.1l4.3,18.6l-0.1,11l-5.4,2.2l-0.7,6.5l4,10.5l2.9,3.2l3.6,15.2
		l5.1,3.3l-3.6,4.3l-3.6-0.7l-8.3,3.6l-5.4,4.3h-6.1l-6.1,7.6v6.1l6.1,8.3l12.3-0.4l12.6-8.3h4l4,2.2h4.7l0.7,9.4l-2.5,4.3v9.4
		l-4.3,21l-3.6,3.6l3.3,5.8l-0.7,9.4l-5.8,3.3l0.4,4.3l6.1,3.3l1.4,7.6l2.5,1.1l-1.1,7.9l-2.5,3.3l-5.8-1.4l-5.4,4.3l-5.8,0.4
		l-4.3,4.7l1.1,2.5l-2.9,3.3l-7.6,2.5l-6.5-2.5l-9.4,4l-1.4,2.5l-9.8,3.3l-3.3-1.8l-6.5,2.5l0.4,2.9l4,0.7l-0.4,5.5l5.5,1.1l1.1,4
		l-2.2,4.8l-4.4,0.4l-0.7,5.9l-2.6,1.5v3.7l8.5,2.6l2.2,5.1l9.6-1.1l2.2-5.1h8.1l2.9,6.2h7L120.9,1384.8z"/>
	<path id="path1561" inkscape:connector-curvature="0" class="st17" d="M136.9,1507.5l8.6-8.1l7.8-3l3,1.5l5.8-0.8l10.3-15.3
		c0,0,2.6-2,5.3-4c2.7-2,5.5-4,6-4c1,0,8.8-0.8,8.8-0.8l0.8,2l3.3-0.5l6.5-5l-0.8-4.8l-11-4.5l-5.3,0.8l-7,4.8l-7.3,0.8l-3.2-3.5
		l2.8-4h3l19.5-6l9-5l13.5-2.5c0,0,10.8-5.3,11.8-5.5c1-0.3,11-2.5,11-2.5l6.8,2.5l6.3,2.8l2.3,3l-0.3,14.5l5.8,9l13.5,5.5l2.5,4
		l-1,4.5c0,0-1.3,7.8-1.3,8.8c0,0.5,1.3,2.2,2.5,3.8s2.5,3,2.5,3h10l3.2,0.8l14.8,0.8l5.3,6.8l2,5l9,5.8h9l6.3-4.5l0.5-14.3
		l11.3-2.2l7,4.8l6.8,2.3l8.5,2.5l7.9-2.2l5.9-6.8c0,0,0.9,0.1,1.8,0.1c0.4,0,0.9,0,1.2-0.1c0.3-0.1,0.6-0.3,0.6-0.6v-5.6l-5.3-4.4
		l-2.1-23.9l-19.8-16.8l-1.8-10.3v-5l3.2-7.1l10-7.7l8.6-1.5l5.9-5.3l3.8-13.6l11.2-13.6l8.9-5.6l12.1-10l11.2-5.6l22.7-1.5l8,7.1
		l4.7,4.1l9.4,0.9c0,0,7.1-1.5,8.3-1.8c1.2-0.3,15.1-2.1,15.1-2.1l4.3-5.5l0.1-7.7l-1.6-9.5l1.3-6.6l-2.5-10.1l-6.9-2.2l-4.1-3.5
		l-0.9-16.1l-3.5-13.3l-4.1-3.2l0.6-7.3l1.6-3.2l2.8-10.1v-3.5l-10.4-3.8l-2.2-2.8h-5.7l-2.2,1.9l-12.9,0.9l-6.3,3.8l-5.4-1.3
		l-3.2-0.9h-14.5l-12.9,6.3l-5-0.3l-3.5-3.5l-6.9-2.8l-0.3-5l-5.3-7.4l-16.4,0.2l-15.2,7.3l-11.4,7.2l-1.4,13.5l-2.1,12.8
		l-33.5,11.4l-16.6-3.1l-10-5.2l-4.8-6.6l-14.6-1l-13.6,2.7l-19.4,12l-9.3,13.2l-10.1,5.4l-25.6,29.9l-7.4,3.1l-23.3,12l-12.4,12.4
		l-10.1,3.9l-7.4,0.8l-8.2,1.8l4.8,4.2l1.1,11.4l4,2.6l-2.6,7l-2.2,1.8v5.1l1.5,11.4l2.6,2.6l-0.7,7l-6.3,5.5v5.5l-7,3.3l-7-2.2
		l-2.2-6.6l-4.8-1.8l-1.1-1.5h-3.3l-5.5,4H89l-3.3,4.8l1.1,7.7l8.8,4h8.8l4.4-3.3l7,3.3v5.1l-8.1,6.6l0.7,2.9l4,2.6v3.7l-3.7,1.5
		l-4.8-1.8l-7.7,4.4l-0.4,2.6l-7.7,1.5l-2.6-1.5l-3.3,1.5v3.7l9.6,0.7l7.7-1.5l4,3.7l2.9,2.6h4v-5.1l-3.3-3.7l2.6-2.6l4.4-1.5
		l3.7-4.4l7.4,0.7l4,4v9.9l2.9,7.7L136.9,1507.5z"/>
	<path id="path1559" inkscape:connector-curvature="0" class="st18" d="M198.3,1651.6l4.1,4.5l0.3,2.6l-3.1,6.5l-4.3,1.7l-2.8,7.1
		v5.1h5.7l3.4-9.7l5.4-3.1l6.5,2l2.6,4.6l4.3,4l6.8,0.6l4.3,1.7l5.4,12.8l8,11.4l9.1,3.1l11.4-3.4l5.7-6.8l3.7-0.3l6.5,6.5l28.2,8.5
		l23.1-0.3l0.1,0l0,0l5.1-3.7l5.7-8l-1.1-9.1l6-4.3l21.6,0.9l4.8,3.7l6.8,0.6l6.3-3.4h2.6l8.3,5.4l18.4,0.3l3.8-6.5l2.7-12.1l-5-1.5
		l-4.7,4.7h-2.7l-1.5-2.4h-14.2l-9.1-7.4v-4.1l1.8-3.8l-0.5-9.7l0,0l-0.1-2.1l-3.8-4.4l-1.2-5.3l3.5-7.4l7.7-1.2l3-10.9l-4.1-5.3v-5
		l6.2-3.8l5.3,4.7l1.2,5l6.5,1.5l3.8-3.5v-12.4l-10.9-10.3l-3-8.9l4.1-4.1l4.4-9.7l0.9-13.6l-2.1-4.7l5.9-7.1l0.9-4.1l10.6-1.8
		l1.2-5.9l-6.2-2.7l-7.7-5.9l0.9-5.3l2.4-1.8l0.9-7.4l-4.1-4.4l-6.2,2.1l-2.1,5.3l-17.1,5.9l-2.7-2.1l-1.8-5.3l-4.1-4.1l-7.9,2.2
		l-8.5-2.5l-6.8-2.3l-7-4.8l-11.3,2.2l-0.5,14.3l-6.3,4.5h-9l-9-5.8l-2-5l-5.3-6.8l-14.8-0.8l-3.2-0.8h-10c0,0-1.2-1.4-2.5-3
		s-2.5-3.3-2.5-3.8c0-1,1.3-8.8,1.3-8.8l1-4.5l-2.5-4l-13.5-5.5l-5.8-9l0.3-14.5l-2.3-3l-6.3-2.8l-6.8-2.5c0,0-10,2.2-11,2.5
		c-1,0.2-11.8,5.5-11.8,5.5l-13.5,2.5l-9,5l-19.5,6h-3l-2.8,4l3.2,3.5l7.3-0.8l7-4.8l5.3-0.8l11,4.5l0.8,4.8l-6.5,5l-3.3,0.5l-0.8-2
		c0,0-7.8,0.8-8.8,0.8c-0.5,0-3.3,2-6,4s-5.3,4-5.3,4l-10.3,15.3l-5.8,0.8l-3-1.5l-7.8,3l-8.6,8.1l5.8,4.5l14,6.6h3.7l5.1,3.7
		l1.1,10.7l-0.4,7.7l-3.3,4l4.4,5.9l5.5,1.8l3.7-1.8l6.2,0.7l12.5,7.4l2.2,7l7.7,1.1l5.1-1.5l4.4,3.7l3.3,6.2l9.6,2.9l7.4,6.2
		l0.7,8.5l2.6,2.2v5.1l-4.4,3.7l-2.6-0.4l-2.8,1.4l-6.7,1.5l-5.9-1.1l-5.9,1.5l-1.9,3.7l-4.8,0.4l-0.7,5.9l5.9,2.6l0.4,5.6l6.3,5.9
		l4.4,0.4l-2.2,5.6l-7.8,6.7h-4.1l-5.9,5.6L198.3,1651.6z"/>
	<path id="path1557" inkscape:connector-curvature="0" class="st19" d="M262.6,2019.7c0-0.2,0-0.2,0-0.3c0,0,1-1,5.3-4.3
		c1.1-0.8,1.7-1.7,2-2.5c0.3-0.8,0.4-1.5,0.3-2.1c-0.2-1.3-0.9-2.1-0.9-2.1l-6.2-11l-1-9.6l5.8-12l-1.4-9.1l-7.2-4.3h-10.1h-8.6
		l-4.3-5.3l2.9-8.1l14.4-12l2.4-14.9l8.1-9.1l12.5-1.9l8.6-7.2l17.3-4.8l10.1,1.4h15.3l6.7,4.3l6.2-1.9l0.5-9.6l-4.8-13.4l-3.4-1.4
		l-8.6,6.7l-3.4-1l-1.9-7.2l2.4-13.9l11-13.9l1-20.6l-4.8-14.9l6.7-18.2l4.8-14.4l-1.4-8.1l-14.9-4.8l-2.9-6.7l2.9-6.2l13.4-5.8
		l5.3-5.8l-4.8-5.3l-4.3-13.9l-0.9-14l-0.1,0l-23.1,0.3l-28.2-8.5l-6.5-6.5l-3.7,0.3l-5.7,6.8l-11.4,3.4l-9.1-3.1l-8-11.4l-5.4-12.8
		l-4.3-1.7l-6.8-0.6l-4.3-4l-2.6-4.6l-6.5-2l-5.4,3.1l-3.4,9.7h-5.7v-5.1l2.8-7.1l4.3-1.7l3.1-6.5l-0.3-2.6l-4.1-4.5l-0.4,0.8
		l-8.2,4.8h-4.1l-4.4,3l-5.2-1.1l-3-3.3l-1.5-5.9l2.2-4.1l-1.9-3.7h-3.7l-5.9,3l-1.9,5.6l-3.7,1.9h-5.6l-3.3-3.7v-5.9l-2.2-3.7h-3.3
		l1.5-9.3l3.3-1.1l-0.4-4.4l-6.7-6.7l-5.2,3.3h-4.1l-5.6,5.2l0.4,9.6l-4.4,4.1l-4.8,0.7l-3-2.2l-6.3,4.1l-3.7,10.8v3.3l-1.9,7.8
		l-10,3.3l-7.4,0.4l-5.2,5.9l-0.4,4.8l4.8,7.8l-3,4.8l-5.9,1.1l-11.9,11.1v7.4l5.2,8.9v4.8l-8.2,5.6l-4.1-0.4l-1.5,4.4l0.7,10
		l-5.6,3l-4.8,7l2.2,15.6l7.4,4.4l6.7,9.3l5.2,10l6.7,7.4l-3.3,7.8l-9.3,5.6l-5.2,0.4l-2.2,5.2l-8.5,4.8h-4.8l-0.7,5.6l5.9,3
		l8.9,11.1l4.8,9.3l7.8,21.1l4.8,6.3l4.8-4.1l4.4-0.4l5.6,4.1l2.6-0.4l2.2-5.9l9.3-5.9h14.1l5.9,3l2.6,8.9l9.3,7.4l2.6-2.2l13.7,13
		l5.9,2.2l2.6,4.4l0.4,8.9l5.9,4.4l6.7,2.6l4.4,7v6.3l3.3,3.7l5.2,1.9v13.7l6.3,9.3l0.7,13.3l8.9,8.5h3.7l2.6,2.6l-2.6,4.8l-8.5,5.2
		l-5.6,1.9l-1.1,11.5l1.1,7l11.9,2.6l4-3.6l4.9-0.7l5.3-3.5l-0.7-5.6l-2.5-5.6l2.1-2.1l1.4-4.6l3.9-0.7l1.1,3.2l7.4,4.9l0.4,4.6
		l-5.6,1.1l-1.1,4.6l0.7,7.4l3.9,1.4l1.4,6l-2.1,2.8h11.2l8.4-5.6l4.2-7l3.5,0.4l1.4,4.6l6.7,0.4L262.6,2019.7z"/>
	<path id="path1555" inkscape:connector-curvature="0" class="st0" d="M563.8,1850.9c-0.5-0.6-1.2-1.4-1.2-1.4l-6.6-12l-2.9-14.9
		l-7.9-3.7h-6.6l-5.4,3.7l-3.7,7.9l9.1,3.7v8.7l-14.9,12l-9.1,1.7l-9.9,6.2l-33.6-1.2l-8.3-5.4l-0.8-3.7l4.1-5l6.2-1.2l-3.9-4.4
		v-5.3l-3.7-5.3l-7-0.8l-0.8-3.7l-7.4,1.2l-6.2,4.9l-4.9,0.4l-3.3,9.5l0.4,8.2l-4.5,2.5l-0.4,3.3l3.7,4.5l-2.5,7.4l-5.3,1.2
		l-4.1-4.1l-11.1,2.9l-1.6,6.2l-4.9,2.1l-1.2,5.3l-2.1,4.5l-2.1,12.7l4.9,5.3l-3.3,9l-2.9,0.4l-8.2,3.7H385l-2.1,10.3l-10.3,4.9
		l-7-2.9l-0.4-6.2l-3.7-4.5h-5.8l-4.9-3.7l-2.9-7l-7.3-5.8l-6.2,1.9l-6.7-4.3h-15.3l-10.1-1.4l-17.3,4.8l-8.6,7.2L264,1913l-8.1,9.1
		l-2.4,14.9l-14.4,12l-2.9,8.1l4.3,5.3h8.6h10.1l7.2,4.3l1.4,9.1l-5.8,12l1,9.6l6.2,11c0,0,0.7,0.8,0.9,2.1c0.1,0.6,0,1.4-0.3,2.1
		c-0.3,0.8-1,1.6-2,2.5c-4.3,3.4-5.3,4.3-5.3,4.3c0,0.2,0,0.2,0,0.3l0,0l1.4,5.6l-8.1,2.8l-1.1,8.1l-4.2,2.1l-1.8,6.3l6,4.9
		l2.1,21.1l4.2,7l1.4,14.8l6.7,8.1l0.4,19.3l-0.7,3.9v3.2l4.6,2.1l1.4,5.6l0.4,3.5l7.7,1.8l7,1.4l6.3-5.3v-3.9l9.5-3.9l3.2-4.6
		l5.3-2.1l1.4-4.2l7.7-0.4l6,6.3l12.7,6.7l17.2-0.7l12.3,0.4l1.4,2.1l12.3,1.1l2.5-1.1l-2.5-6l3.2-10.2l0.4-7.4l6.7-3.9l3.2,3.9
		l6-1.8l-0.7-14.8l4.6-7.4l6.7-2.8l1.1-9.5l-3.5-16.5l2.8-4.2l4.6-1.4l2.8-4.2l1.1-8.8l-2.1-4.9l1.4-3.9c0,0,2.1-0.7,3.2-2.5
		c1.1-1.8,2.1-6,2.1-6l-6-6v-8.1l5.3-6.3l1.4-13.4l4.6-4.6l2.8,3.2l5.6-2.8l4.9-9.5l8.8-2.1l2.8,2.1l6.7-3.9l3.9-7l10.2-2.1l3.9,2.1
		l9.5-0.4l7.4-5.6l-2.1-4.9l1.4-8.8l8.1-12.7l11.2-5.6l8.8-9.3c0,0,0-7.4,1.4-9.3s11.6-13,11.6-13l9.8-1.4l6.5-4.2v-4.7l-6.5-4.7
		l-11.2-1.4l-1.4-3.7l7-0.9l4.2-3.7l-7.9-5.1l2.8-3.3l0.9,2.8l12.1,6.5l3.3-2.3l-1.9-8.4L563.8,1850.9z"/>
	<path id="path1553" inkscape:connector-curvature="0" class="st20" d="M581.7,1583.5l-9.1-2.3l-1.7-2.6l-2.3-6.7l-6.1-4.4
		l-11.6,0.9l-3.2,2l-13.1-1.7l-2.3-2.6l-4.1,0.9l-3.8,3.2l-0.6,4.4l6.1,7.6l-0.3,3.2l-1.5,2.9l3.5,2.9l-1.5,7.3h-3.8l-1.2-2
		l-8.7,0.6l-3.2,8.4l3.5,10.5l-0.6,9.3l-4.4,6.4h-7l-8.4,4.1l-16.9-2l-3.5-2l-4.1,0.3l-4.7,7v15.1l12.5,4.1l1.7,3.5l-2.6,1.7
		l-6.4-1.5l-0.6-2.3h-6.4l-2.6,3.8l-4.1,0.6l-6.4-5.8l-10.2,0.9l-7.6,4.4l-7.9,2.6l-4.1-0.3l-14-8.7l-3.8-4.7l-6.4-2.9l-11.1,1.1
		l0.5,9.7l-1.8,3.8v4.1l9.1,7.4h14.2l1.5,2.4h2.7l4.7-4.7l5,1.5l-2.7,12.1l-3.8,6.5l4.3,27.1l-2.5,7.9l-6.2,2.9l-8.7,7v13.3l-2.5,5
		l8.7,8.3l18.2,2.5l-0.4,7l-4.6,3.7l20.7,16.4l5.8-1.9l30.7-0.4l9.9,7.9v13.7l3.7,2.9l15.7,2.5l5.4-3.7l10.8,3.3l7,4.1l5.4-3.7h6.6
		l7.9,3.7l2.9,14.9l6.6,12c0,0,0.7,0.8,1.2,1.4l5.2-6.2l13.5-6l8.8,2.8l7.9-2.3l-1.9-3.7l3.3-7.9h9.8l9.3-7l4.2-14.4l-2.3-11.6
		l7-12.6l7.4-2.8l4.7,1.9l5.1-1.9l-2.3-16.3l0.5-11.6l-4.2-11.2l-6.5-2.3l-5.1-9.8l1.4-7.4l3.7-1.4l0.9-6.5l-3.7-4.7l-7.9-1.9
		l-0.5-6.5l5.6-3.3v-7.9l-7.4-4.7l-1.4-13.5l-0.5-9.8l7.4-11.6l4.2-1.4v-4.2l-13.5-6.5l-0.5-3.3l4.7-3.7l4.2,0.9l6.5-5.6l-6-3.3
		l4.2-2.8l0.5-3.7l-4.7-2.8l-6,3.3l-10.7-3.3l-1.4-5.6l-4.2-2.3l0.9-6.3l-2.8-11.7l-6.1-5l-5,6.1h-8.3V1583.5z M529.4,1830.4
		l-14.5,4.6l-20.3,1.7l-13.7,3.7l-8.7,5.8l-6.2,1.2l-4.1,5l0.8,3.7l8.3,5.4l33.6,1.2l9.9-6.2l9.1-1.7l14.9-12v-8.7L529.4,1830.4z"/>
	<path id="path1549" inkscape:connector-curvature="0" class="st21" d="M589.4,1408.6l-0.4-1.9l-3.9-4.3v-9.9l-5-6.5v-3.5l10.9-6.5
		l3.5-7l16.4-9.4l1-5.5l-4.5-9.4l2.5-7.5l4.5-5l1-8l-3-3l-7.5,1l-8.9-4.5l-5.5-11.4l1-11.4l1.5-8.9l-1-12.4l-8.9-9.9l-3-11.9l4-6
		l0.5-4.5l-8-8.9l-0.5-9.9l-7.5-6.5v-5.5l3-5.5l-3-6l-8-3l-13.4,0.5v-7.5l4.5-11.4l-0.5-4l-5.5-8l-6-15.4l3-8l3-2.5V1127l-3.5-2
		l-10.4,6h-7.5l-7-6l-3.5-14.9l-7-5.5l-8-0.5l-10.4,4h-26.3l-9.7-6.7l-1.5,13.2l-15.5,14.1l-7.5,5.2l-5.2,9.4l-0.2,10l-0.8,41.7
		l-2.4,16.9l-10.8,19.8l-15.1,19.3l5.3,7.4l0.3,5l6.9,2.8l3.5,3.5l5,0.3l12.9-6.3h14.5l3.2,0.9l5.4,1.3l6.3-3.8l12.9-0.9l2.2-1.9
		h5.7l2.2,2.8l10.4,3.8v3.5l-2.8,10.1l-1.6,3.2l-0.6,7.3l4.1,3.2l3.5,13.3l0.9,16.1l4.1,3.5l6.9,2.2l2.5,10.1l-1.3,6.6l1.6,9.5
		l-0.1,7.7l12.2,8.7l1.4,6.9l4.5,5.2l12.4,2.8l5.9,4.5l6.2,2.5l0.9,0.6l0-0.1l9.4,1.1l9.4,16.1l8.3,1.7l3.3,10l3.3-0.6l3.9-7.2v-5.6
		L589.4,1408.6z"/>
	<path id="path1547" inkscape:connector-curvature="0" class="st22" d="M678.3,1136.8c-0.1-0.4-0.3-1.2-0.3-1.2l-2.8-8.7l-7.3-2.8
		l-13.9,9.4l-8.3-1l-2.4-10.1l2.8-6.6l-8-5.9l-9.7,2.1l-3.8-3.1l-4.2-19.1l-18.8-15.6l-8.3-1l-4.9,1.4l-3.5-8.3l-5.9-2.8l-8.3-0.7
		l-4.9,6.2l-7.3,5.2l-3.1,4.5l-1,8.3l-3.8,6.6l-11.1,6.9l-10.8,3.8l-5.9,5.2l-5.2,1l-3.5-0.5l3.5,14.9l7,6h7.5l10.4-6l3.5,2v12.9
		l-3,2.5l-3,8l6,15.4l5.5,8l0.5,4l-4.5,11.4v7.5l13.4-0.5l8,3l3,6l-3,5.5v5.5l7.5,6.5l0.5,9.9l8,8.9l-0.5,4.5l-4,6l3,11.9l8.9,9.9
		l1,12.4l-1.5,8.9l-1,11.4l5.5,11.4l8.9,4.5l7.5-1l3,3l-1,8l-4.5,5l-2.5,7.5l4.5,9.4l-1,5.5l-16.4,9.4l-3.5,7l-10.9,6.5v3.5l5,6.5
		v9.9l3.9,4.3l0.4,1.9l6.1,0.5l3.3,6.7h6.1l2.2,6.1l5,1.1l4.4-1.7l10,5.5l2.8,7.8l7.8-1.7l1.7-2.8l0.6-4.4l5,1.7l6.7,5l3.9,16.1
		l7.8,15.5l8.3,6.7l4.4,13.9l9.4-5.6l1.7-7.2l3.3-5.6l8.9-3.3v-3.3l12.8-3.3l14.4,3.9l6.1,6.1l12.2-0.6l6.1,3.3v8.9l-3.3,4.4
		l-1.1,10l5.6,2.2l1.1,7.2l10-6.1c0,0,3.9-6.1,7.2-11.1s7.8-6.1,7.8-6.1l9.4,2.2l5.6-6.7v-8.9l-7.2-7.2l5.6-6.1l-0.6-22.8h-5.5
		l-8.3-3.3h-13.3l-5,4.4l-7.8-2.2l-2.2-2.8l-8.9-4.4h-11.7l-13.3-3.9l-7.8-5.6h-10l-6.1-4.4l-0.6-6.7l4.4-3.3l-1.1-13.9l-3.3-5
		l1.7-5.6l7.8-10l0.6-9.4l-5-5l2.2-8.3l5.6-6.7l-1.1-6.1l-8.9-7.2l1.1-6.1l3.9-3.3l5-13.9l0.6-11.1l-5-8.9l1.1-5h-5.6l-1.7,9.4
		l-3.9-3.9l2.8-11.7l-3.9-4.4l-8.9-6.1l-1.1-7.8l-3.3-5l3.3-10l3.9-1.1l1.7-6.7l3.3-2.8l-1.7-8.9l-5-6.7l-1.1-11.7l-5.6-20l3.3-21.6
		l1.1-9.4l-3.3-4.4L678.3,1136.8z"/>
	<path id="path1545" inkscape:connector-curvature="0" class="st23" d="M964.1,975.4l-0.2-0.7l-6-7.6L936.9,956h-5.2l-7.6,6l-8-2
		v-14.7l-18.3-15.5L886,927l-8.8,3.2l-6.4,6l-11.9-0.8l-5.6-4.8l-0.6-21.4l-5.9-1.7l-3.5,1l-3.5-3.1l-4.5,2.8l-10.4,6.6l-10.8,2.8
		l-3.5-0.7l-17.4-1.4l-5.6,3.1l-1,5.9l7.3,12.5l-1,18.4l-3.5,12.5l-11.5,4.9l-8-1.4l-12.2,0.7l-9.4,5.2l-9,1l-14.6,6.3L712.4,996
		l-8-1l-2.4-2.4h-3.5l-3.1,2.8l-12.8,4.2l-1,2.1h-4.2l-2.8-4.2l-4.2-2.4H651l-5.6-4.9l-0.3-8l9-11.5l-1.7-4.5h-5.2l-5.9,2.1
		L626.8,980l0,0l-6.4,5.2l-15.6,7.6l-12.2,2.1l-18.8,36.8l2.4,4.2l2.1,8.7l-7.3,12.5l-0.3,5.6l8.3,0.7l5.9,2.8l3.5,8.3l4.9-1.4
		l8.3,1l18.8,15.6l4.2,19.1l3.8,3.1l9.7-2.1l8,5.9l-2.8,6.6l2.4,10.1l8.3,1l13.9-9.4l7.3,2.8l2.8,8.7c0,0,0.2,0.8,0.3,1.2l0.5-0.2
		l5.5,2.2v6.1l7.8-3.3l3.9,1.7l1.1,11.1l5,3.9h12.8l5.6-4.4l-1.1-11.1l-1.7-7.8l5-6.1l5-0.6l11.1-5.6l2.8-8.3l6.7-8.9l6.7-2.8
		l8.3-15v-5l-3.3-3.3l0.6-2.8l7.2-3.3v-4.4l3.9-5l-1.7-6.7l-3.3-3.3l6.7-3.9l10.5,2.2l6.1-3.9l16.1,0.6l4.4,6.1l5-1.1l2.8-5
		l10.5-2.2l5,3.9l2.2-3.9l14.4,1.1l7.2,3.3l4.4-4.4l11.7,1.7l11.1,11.7l11.1,0.6l11.7,8.9l12.8-0.6l6.1-8.3l8.9-2.2l3.9-7.8
		l2.2-12.8l6.1-11.1l-3.9-7.2l5.6-6.7l12.8-3.9v-5.6l-7.2-4.4c0,0,7.2-7.8,8.3-10.5c1.1-2.8-2.2-12.2-2.2-12.2L964.1,975.4z"/>
	<path id="path1543" inkscape:connector-curvature="0" class="st24" d="M1129.9,673.1l-10.7-9.3l-8.4-13h-8.4l-13,4.6l-13-6.1
		l-16-16.8l1.5-37.4l-4.6-2.3l-26.7,13l-13.7-3.8l-16.2-24.4l9.2-9.9l1.5-11.4l-12.4-10.8l0.5-10.7l-0.7-9.1l-11.9-9.5l-13.8-0.2
		l-4.5-2.1l-12.2,1.2l-13.6,6l-17.2,1l-7.9-1.4l-6.9,2.9l-10.6,10.3l-0.4,7.9l3.1,9.3l-3.1,6.2l1.3,7.5l7.5,8.9v12l-4.9,15.1
		l0.9,10.7l-2.2,7.1l-12.4,11.5l-7.1,25.7l2.7,12.9l-3.6,8.4l-8.4,9.3l-1.3,12l-9.2,15.1l0.8,24.2l9.4,10.9l7.9,0.8l6.8,2.6
		l3.4,16.6l6,10.9l5.3,0.8l2.3-3.4h9l19.2,20.7l1.5,6l-0.8,13.5l7.2,6.4l4.9-3l4.1,1.5l-1.1,4.9l1.5,4.5l7.2,5.6l1.9,4.9v4.1
		l-17.3,1.5l-6.8,4.9l-18.4-5.6l-4.9-6.8l-6-0.8l-7.2,4.5l-9.8-0.8l-11.3,5.3l-8.6,5.3v4.8l-1.2,15.1l-4.8,8.4l2.8,8.8l-1.2,7.2
		l-12.2,11.6l0.6,21.4l5.6,4.8l11.9,0.8l6.4-6l8.8-3.2l11.9,2.8l18.3,15.5V960l8,2l7.6-6h5.2l21.1,11.1l6,7.6l0.2,0.7l1.7-0.4
		l7.2,10.5h12.8l11.7,6.7l5.6-7.8l-1.1-7.8l-6.7-4.4l-0.6-7.2l-7.8-8.3l-2.8-9.4l-5-6.1l5-8.9l4.4-4.4l1.7-9.4l-1.7-10.5l5-7.2
		l6.7-2.8l7.8-6.1l4.4,1.7l3.3,7.2h5.6l5.6-7.8l-1.1-5l-12.2-2.2l-5.5-6.7l2.2-5l10-1.1l1.7-4.4l5-6.7l0.6-4.4l-3.9-3.3l-2.2-5.5
		l6.1-3.9l-2.2-3.9l3.9-5.6l7.8,5.6l5-11.1l5-1.7h8.9l0.6-6.1l-2.2-6.1v-5.5l5.6-6.1l-3.9-6.1l-8.3-2.8l-4.4-10.5v-16.1l-2.2-7.2
		l5-6.1l7.2,1.1l6.1-2.2v-6.7l-8.9-7.8l5-8.3l6.7-6.1l5.6-20l12.8-6.1l2.2-4.4l4.4-2.8l13.3,2.2l11.1-2.2c0,0,2.2-3.3,3.9-7.8
		c1.7-4.4,6.1-5,6.1-5l6.7-1.7L1129.9,673.1z"/>
	<path id="path1541" inkscape:connector-curvature="0" class="st25" d="M1200.3,372.1l-11.6-1.1l-13,9.2l-31.3-19.1l-20.6,2.3
		l-35.1-1.5l-9.9,13.7l-19.8,10.7l-12.2,12.2v6.1l9.2,3.1l1.5,6.1l-6.1,22.1l-6.9,11.4l6.1,16l1.5,16l25.2,6.9l2.3,10.7l17.5,8.4
		v5.3l-3.8,8.4l3.1,17.5l11.4,20.6v7.6l-11.4,1.5l-18.3-19.1l-17.5-0.8l-7.6-6.1l-15.3,3.8l-12.2,9.2l-13.9,3.1l-1.5,11.4l-9.2,9.9
		l16.2,24.4l13.7,3.8l26.7-13l4.6,2.3l-1.5,37.4l16,16.8l13,6.1l13-4.6h8.4l8.4,13l10.7,9.3l1.3-2.8l10-12.2l14.4-1.7l4.4-2.8
		l13.9,2.2l11.7-4.4l3.3-16.7l4.4-1.1l1.1-10l-2.8-6.7l-7.2-2.8l-7.8-6.7v-6.1l6.1-5.5l-2.2-6.7l8.9-8.9l6.1-0.6l5.6-5.6l-1.1-7.2
		l6.1-3.9l8.3,0.6l9.4,3.3l12.8-8.3h4.4l7.8-7.2l3.9-11.7v-10.5l8.3-6.7l6.7,1.7l2.8-4.4l1.7-7.8l8.3-5v-11.7l5-8.3h9.4l2.8-3.9
		l0.6-11.1l5-5.5v-6.1l-10.5-5.5l-0.6-7.2l-10,0.6l-4.4,8.9l-11.1-4.4l-1.1-5l-8.3,2.8l-10-3.3l-4.4-7.8l-0.6-6.7l-6.7,1.7l-2.8,8.9
		l2.2,6.7l-3.9,6.1l-4.4-1.1l-0.6-5.6l-4.4-6.1l-1.7-10.5l2.2-6.1l-1.7-9.4l-8.9-8.9l-9.4-0.6l-8.9-11.1l0.6-10.5l7.2-8.9
		L1200.3,372.1z"/>
	<path id="path3899" inkscape:connector-curvature="0" class="st26" d="M987.4,73.6l-13.3,1.7l-10,12.8v8.3l-5.6,7.8l-7.2,1.1
		l-8.3,11.1l-1.7,11.7l-10,11.7l-25,10h-13.3l-17.8,2.8l-15.5-1.7l-5.6-4.4l-12.2-3.9l-10-11.7l-5-6.7l-3.3-3.3l-7.8,2.2l-2.8,7.2
		l-16.1,6.7l-8.9-3.3l-13.3,2.8l-6.1,10.5l9.2,6l10.3,2.6l22-0.9l6.9,7.3l0.9,8.2h9.1l6,9.5l14.7-2.6l7.3-9.1l3,1.7l1.3,7.3l3.4,1.7
		l4.7,7.8l11.6,9.5l9.1-0.9l9.9,6.5h11.2l6.9-4.7l4.7,3.9l-3.5,6.5l3,1.7v14.2l-3,6.9l6.5,4.7v10.3l-5.2,9.9l5.6,4.7l5.6-2.2h9.9
		l12.1-3.4l4.7,4.7l-0.9,6.5l-3.9,5.2l2.2,10.3l10.3-1.7l12.5-11.2l1.7,11.6l-3,3.9l0.4,7.8l3.9,4.3v3.9l-9.9,3.4l-3,8.6l5.2,8.2
		v4.7h-15.5c-0.9,0-1.6-0.2-2.2-0.4s-1.1-0.6-1.5-0.9c-0.8-0.6-1.1-1.3-1.1-1.3h-7.8l-8.6,6.9l3.9,8.2l-3,12.5l2.6,14.7l13.4,1.7
		l3.4,4.7l6,7.3l4.3,9.5l10.8,4.3l9.1-3.4l1.7-20.7v-12.9l9.1-7.3l4.3-0.4l2.6,6.5l7.3,3l12.9,0.9l12.5,6l4.3,7.8l0.9,11.6l2.6,8.6
		l2.3,7.1l12.2-12.2l19.8-10.7l9.9-13.7l35.1,1.5l20.6-2.3l31.3,19.1l13-9.2l11.6,1.1l-2.5-14.3l6.1-23.9h2.8l-1.1-5.5l-5.6-4.4
		l-2.8-6.1l-8.9-0.6l-6.7,7.2h-5.6l-5-8.3l3.3-7.2l1.1-21.1l12.2-12.2l4.4-13.9l-2.2-18.3l-10-10l-9.4-0.6l-7.2,11.7l-1.7,12.2h-7.8
		l-3.3-4.4l-10-3.9l-12.8,0.6l-9.4-1.7l-7.8-11.1l-6.1-2.2v-3.3l4.4-1.7l-2.2-5.6l-8.9-4.4v-7.8l6.1-8.3l-3.9-16.1l-5.6-3.3
		l-2.8-15.5l-12.8-1.7l-4.4-5.6l-21.6-2.8l-1.7-3.3l2.8-4.4l-3.9-3.9l-6.1-1.7l0.6-8.9l-6.7-10.5l-3.3-3.9l-2.8-10.5l2.2-4.4
		l-3.3-5.6l-12.2-2.2l-6.7-5l-1.1-6.1l-3.3-5.6h-7.2l-10-5.6L987.4,73.6z"/>
	<text transform="matrix(1 0 0 1 545.6828 1192.3477)" class="st27 st28">Gariaband</text>
</g>
<g id="layer2" inkscape:groupmode="layer" inkscape:label="Districts 1">
	<path id="path1689" inkscape:connector-curvature="0" class="st29" d="M977.1,853.4v4.8l-1.2,15.1l-4.8,8.4l2.8,8.8l-1.2,7.2
		l-12.2,11.6l0.6,21.4l5.6,4.8l11.9,0.8l6.4-6l8.8-3.2l11.9,2.8l18.3,15.5V960l8,2l7.6-6h5.2l21.1,11.1l6,7.6l0.9,3"/>
	<path id="path1687" inkscape:connector-curvature="0" class="st29" d="M757.3,457.8l-5.1-5.6l-4-9.9l2.2-4v-4.5l-10.7-6.7l-1.8-9.4
		l1.8-4.9l-7.2-9.4l-3.6-2.7l-3.8-5.8"/>
	<path id="path1685" inkscape:connector-curvature="0" class="st29" d="M862.5,440.2l-5.4-1l-1.3-1.4l-2.4-0.4l-1.8,2.1l-9.6,0.1
		l-3.4,2.6L827,450l-2.7-0.3l-8.5-9.5h-9.8l-17,3l-4.4,6.8l-4.5,8.4l-22.8-0.6"/>
	<path id="path1683" inkscape:connector-curvature="0" class="st29" d="M832.7,683.1l-3.4,1.3l-3.4-2.3l-4.3-1.1l0.4-13.8l-6-9.4
		l-7.5-1.1l-1.5-2.5l-3.2-0.4L787,661l-3.9,4.2l-6.4,1.1l-1.9-3.2l-7.9-1.1l-3,1.9l-9.6-1.5l-8.3-5.3v-4.7l-3.2-2.5V645l7-7.2
		l2.4-0.6V634l-4.3-3l-7.7,0.2l-7.7-7.7l-0.9-5.1l2.4-3l0.9-21.9l4.1-6.2l7-3.6l3,0.4l0.8,2.1l7.9,0.6l4.7-6l3.8-0.4l1.9-4.9l-2.3-3
		l-0.2-3.4l4.1-2.3l-0.6-8.5L746,557l-4.3-5.5l0.2-5.3l2.3-5.3l-0.6-4.7l-10.2-7.9l0.2-4l3.2-2.6l4.5-7.2l0.9-4l-2.6-3l-5.6-5.9
		l-1.5-6.8l1.3-7.4l1.5-1.7l1.3-5.5l6.6-9.3l9.6-6.6l4.5-6.6"/>
	<path id="path1681" inkscape:connector-curvature="0" class="st29" d="M971,713.3l-6.4-2.7l-3.1-2.9h-7l-28.5,5.2l-2.5,1l-3.7,0.4
		l-2.7,2.9l-2.9,7.8l-5,6l-1.9,0.4l-3.5-3.1l-18.2-10.7l-3.7-10.1v-7.6l2.5-4.3l2.9-10.3l1.9-1.6l-0.6-4.7l-1.4-0.8l-1.4-2.9l-7.4-1
		l-6,4.3l-4.7,8.9l-6.8,1l-5.6-2.7l-2.5-3.5l-18.3-1.6l-1.9,2.3"/>
	<path id="path1679" inkscape:connector-curvature="0" class="st29" d="M839.8,854.8l-4.2-10l-13-8.5l-9.9-0.3l-12.2-14.7l-6.2-13.3
		l-1.1-10.2l-5.9-8.5l-0.8-14.7l4.5-5.9l2.3-19.2l2-4.5l2.5-11.6l3.7-11l4.5-3.1l5.4-4.5l6.8-0.6l9.5-3.3l2-5.1v-5.4l5.1-4l1.4-5.9
		l-2.5-3.4l-0.8-4"/>
	<path id="path1677" inkscape:connector-curvature="0" class="st29" d="M543.6,768.9l0.1-18.7l3.8-2.9v-10.8l-2.9-3.2v-4.4l9.7-4.4
		l1.5-10.5l-8.8-14.6l-0.6-15.5l-2.6-6.7l-10.5-5.6l-2.9-9.4l3.8-7l2.3-17.3l-5.3-11.7l-8.2-10.3l-6.9-6"/>
	<path id="path1675" inkscape:connector-curvature="0" class="st29" d="M839.8,854.8c-0.8,0-22.4-1.3-22.4-1.3l-2.3,2.9l-22.2-0.8
		l-11.2-9.5l-3.3,1l-1.4,3.1l-5.4,0.2l0.2-6.2l-10.4-14.9l-12.6-2.5l-23-10.6h-5.8l-12.2,5.4l-11.2,4.9l-5.2,4.6l-4.6,0.4l-3.1-1.7
		l-12-2.5"/>
	<path id="path1673" inkscape:connector-curvature="0" class="st29" d="M543.6,768.9l6.6,1.2l3.3,2.1l2,3.1l8.2,0.6l16.2-0.6l7,4.1
		l1.8,3.3l9.6,2.1l10-0.4l8.6,1l8.6,8.8l0.6,6.6l3.7,12.7l5.9,5.1l6.8-0.8l6.6-5.7l2.9-0.4l1.6,2.7l13.5,6.6l4.4,6"/>
	<path id="path1671" inkscape:connector-curvature="0" class="st29" d="M707.6,821.6l-7.1-8l2-5.4l-0.6-3.4l-8.8-2.6l-9.4-9.9
		l-2.6-6.8l0.9-8.2l-2.3-3.1l-5.4-1.4l-5.7-5.4l-1.7-10.8l-3.4-2.6l-3.7-0.6l-4-6v-6.5l-4.8-7.9l-17.3-18.4l-9.9-6l-3.1,1.1
		l-3.4-1.1l-5.1-7.1l-6.8-1.4l-0.6-4l1.4-2l-1.1-8.2l-4.3-2.8v-2.6l17.3,0.9l3.7,4l13.3,0.9l5.1-2.6l6-7.7l10.8-1.1l5.4-5.4l1.7-6.8
		v-12.8l-11.1-12.5c0,0-1.7-12.2-2.8-12.8c-1.1-0.6-6-2.3-6-2.3l-8.2,0.6l-7.1-7.9l-5.1-2.3l-2-4l1.7-12.8l-8.2-5.7l-0.6-9.4
		l-4.8-5.7l-4.5,2l-3.7-1.7l-6.5-9.6l-0.9-3.1l0.3-7.1"/>
	<path id="path1669" inkscape:connector-curvature="0" class="st29" d="M445.1,869.2l12.1-6.4l23.9-8.6l2.9-2.5l0.4-8.2l16.8-11.1
		l5.4-3.2l3.2-6.4l-1.4-14.3l4.3-3.2l7.9-1.1l5.4-6.8v-12.5l4.3-6.1l6.8-6.4l6.8-3.6"/>
	<path id="path1667" inkscape:connector-curvature="0" class="st29" d="M326.4,824.6l2.9,3.6l6.4,3.2l12.9,0.4l4.3,2.1l8.6,3.9
		l12.9,2.9l2.5,2.1v4.6l2.9,6.4l9.6,8.2l6.1,2.5l19.6,1.8l2.5,1.8h7.1l3.2-3.6h7.5l1.4,2.5l8.3,2.1"/>
	<path id="path1665" inkscape:connector-curvature="0" class="st29" d="M228,1384.9l8.9-1.9l7.4-0.8l10.1-3.9l12.4-12.4l23.3-12
		l7.4-3.1l25.6-29.9l10.1-5.4l9.3-13.2l19.4-12l13.6-2.7"/>
	<path id="path1663" inkscape:connector-curvature="0" class="st29" d="M445.1,869.2l-9.7,10.1l-7,1.9l-3.5,3.5l-1.2,10.9l-5.4,16.3
		l-3.6,11.4l0.4,6.2l2.5,4.9l2.6,9.3l0.5,2l-0.8,13.2l-2.3,1.6v3.5l5.8,7l1.2,8.5l-0.4,12.4l-1.9,1.2l2.3,5.4l-0.4,17.9l-3.5,7.4
		l-1.9,13.2l3.5,8.2l8.5,5.8l1.2,10.1l-3.9,3.5l-7,1.6l-2.3,5l-2.7,17.5l-2.7,11.1l-6.6-0.3l-12,9.3l-10.1,4.3l-10.5-1.6l-3.9,4.3
		l-1.6,11.3l-2.7,1.9v2.3l8.9,8.2l1.9,14.8l-6.6,3.1l-10.9,16.7l-17.1,8.5l-10.5,1.9l-13.2,15.9l-2.7,11.3v12.8l5.4,1.9l4.3,5.4
		l5.8,0.4l6.2-4.7h8.5l3.5,4.7h7.4l5-4.3l5.4-0.4l1.2,5l13.2,10.9l1.9,8.5l-5,5l-5.4,1.2l-3.9,6.2l6.2,10.1l0.8,3.1l-0.8,9.7"/>
	<path id="path1661" inkscape:connector-curvature="0" class="st29" d="M501.5,1251l-16.4,0.2l-15.2,7.3l-11.4,7.3l-1.4,13.5
		l-2.1,12.8l-33.5,11.4l-16.6-3.1l-10-5.2l-4.8-6.6l-14.6-1"/>
	<path id="path1659" inkscape:connector-curvature="0" class="st29" d="M660.4,1394l-2.3-1.5l-6.2-2.5l-5.9-4.5l-12.4-2.8l-4.5-5.2
		l-1.4-6.9l-12.2-8.7"/>
	<path id="path1657" inkscape:connector-curvature="0" class="st29" d="M501.5,1251l5.3,7.4l0.3,5l6.9,2.8l3.5,3.5l5,0.3l12.9-6.3
		H550l3.2,0.9l5.4,1.3l6.3-3.8l12.9-0.9l2.2-1.9h5.7l2.2,2.8l10.4,3.8v3.5l-2.8,10.1l-1.6,3.2l-0.6,7.3l4.1,3.2l3.5,13.3l0.9,16.1
		l4.1,3.5l6.9,2.2l2.5,10.1l-1.3,6.6l1.6,9.5l-0.1,7.7"/>
	<path id="path1655" inkscape:connector-curvature="0" class="st29" d="M560.5,1101.4l-1.5,13.2l-15.5,14.1l-7.5,5.2l-5.2,9.4
		l-0.2,10l-0.8,41.7l-2.4,16.9l-10.8,19.8l-15.1,19.3"/>
	<path id="path1653" inkscape:connector-curvature="0" class="st29" d="M413.2,1099.8l7.8,8.7l6.1-0.9l3.3-5.2l8.9,0.9l4.2,1.9
		l10.8,0.5l10.4-6.6h2.4l4.2,2.4l9.9-0.5l2.4-3.8l8-3.3h4.7l5.6,8.9v17.4l-5.2,9.9l-0.5,5.6l6.6,4.2l1.4,9.4l2.8,1.9l2.8-4.2h4.7
		l1.4,3.3l8.9,2.8l5.5,0.1"/>
	<path id="path1651" inkscape:connector-curvature="0" class="st29" d="M546.5,992.9l-12-5.8H525l-10.4-3.8l-6.6-7.5l-10.4-6.6
		l1.4-5.6l2.8-2.4l2.4-10.4l-6.6-10.8l-10.4-0.5l-8-6.6l-5.6-0.5l-7.5-7.5l-6.1,4.2l-5.2,0.9l2.8,6.1l-3.7,2.6l-13.2-1.9l-6.6,4.2
		l-14.3,2.5"/>
	<path id="path1649" inkscape:connector-curvature="0" class="st29" d="M560.5,1101.4l-4.2-6.9l0.8-12.3l11.9-4.6l0.8-7.7l-6.9-15
		l-26.2-15l-0.8-11.9l5.8-17.7l4.9-17.3"/>
	<path id="path1647" inkscape:connector-curvature="0" class="st29" d="M671.5,827.3l-2.6,14.1l-8.8,7.7l-20.8,3.5l-10.8-1.9
		l-9.2,6.2v9.6l-1.2,7.7l-8.8,8.1l-6.5,8.1v9.6l-5,11.2l-16.2,19.2L567,942.9l-9.6,11.9v6.9l-5.4,18.5l-5.5,12.7"/>
	<path id="path1645" inkscape:connector-curvature="0" class="st29" d="M697.6,1410.2l-0.7-3.5l-3.9-4.3v-9.9l-5-6.5v-3.5l10.9-6.5
		l3.5-7l16.4-9.4l1-5.5l-4.5-9.4l2.5-7.5l4.5-5l1-8l-3-3l-7.5,1l-8.9-4.5l-5.5-11.4l1-11.4l1.5-8.9l-1-12.4l-8.9-9.9l-3-11.9l4-6
		l0.5-4.5l-8-8.9l-0.5-9.9l-7.5-6.5v-5.5l3-5.5l-3-6l-8-3l-13.4,0.5v-7.5l4.5-11.4l-0.5-4l-5.5-8l-6-15.4l3-8l3-2.5V1127l-3.5-2
		l-10.4,6h-7.5l-7-6l-3.5-14.9l-7-5.5l-8-0.5l-10.4,4h-26.3l-9.7-6.7"/>
	<path id="path1643" inkscape:connector-curvature="0" class="st29" d="M495.1,1650.4l11.3-1.2l6.4,2.9l3.8,4.7l14,8.7l4.1,0.3
		l7.9-2.6l7.6-4.4l10.2-0.9l6.4,5.8l4.1-0.6l2.6-3.8h6.4l0.6,2.3l6.4,1.5l2.6-1.7l-1.7-3.5l-12.5-4.1v-15.1l4.7-7l4.1-0.3l3.5,2
		l16.9,2l8.4-4.1h7l4.4-6.4l0.6-9.3l-3.5-10.5l3.2-8.4l8.7-0.6l1.2,2h3.8l1.5-7.3l-3.5-2.9l1.5-2.9l0.3-3.2l-6.1-7.6l0.6-4.4
		l3.8-3.2l4.1-0.9l2.3,2.6l13.1,1.7l3.2-2l11.6-0.9l6.1,4.4l2.3,6.7l1.7,2.6l10.3,2.6"/>
	<path id="path1641" inkscape:connector-curvature="0" class="st29" d="M487.6,1504.2l5.9-6.8c0,0,3.5,0.6,3.5-0.6v-5.6l-5.3-4.4
		l-2.1-23.9l-19.8-16.8l-1.8-10.3v-5l3.2-7.1l10-7.7l8.6-1.5l5.9-5.3l3.8-13.6l11.2-13.6l8.9-5.6l12.1-10l11.2-5.6l22.7-1.5l8,7.1
		l4.7,4.1l9.4,0.9c0,0,7.1-1.5,8.3-1.8c1.2-0.3,15.1-2.1,15.1-2.1l4.3-5.6"/>
	<path id="path1639" inkscape:connector-curvature="0" class="st29" d="M524.8,1693.1l3.8-6.5l2.7-12.1l-5-1.5l-4.7,4.7h-2.7
		l-1.5-2.4h-14.2l-9.1-7.4v-4.1l1.8-3.8l-0.6-11.8l-3.8-4.4l-1.2-5.3l3.5-7.4l7.7-1.2l3-10.9l-4.1-5.3v-5l6.2-3.8l5.3,4.7l1.2,5
		l6.5,1.5l3.8-3.5v-12.4l-10.9-10.3l-3-8.9l4.1-4.1l4.4-9.7l0.9-13.6l-2.1-4.7l5.9-7.1l0.9-4.1l10.6-1.8l1.2-5.9l-6.2-2.7l-7.7-5.9
		l0.9-5.3l2.4-1.8l0.9-7.4l-4.1-4.4l-6.2,2.1l-2.1,5.3l-17.1,5.9l-2.7-2.1l-1.8-5.3l-4.1-4.1"/>
	<path id="path1637" inkscape:connector-curvature="0" class="st29" d="M243.4,1508.7l9.9-9.3l7.8-3l3,1.5l5.8-0.8l10.3-15.3
		c0,0,10.3-8,11.3-8c1,0,8.8-0.8,8.8-0.8l0.8,2l3.3-0.5l6.5-5l-0.8-4.8l-11-4.5l-5.3,0.8l-7,4.8l-7.3,0.8l-3.3-3.5l2.8-4h3l19.5-6
		l9-5l13.5-2.5c0,0,10.8-5.3,11.8-5.5c1-0.3,11-2.5,11-2.5l6.8,2.5l6.3,2.8l2.3,3l-0.3,14.5l5.8,9l13.5,5.5l2.5,4l-1,4.5
		c0,0-1.3,7.8-1.3,8.8s5,6.8,5,6.8h10l3.3,0.8l14.8,0.8l5.3,6.8l2,5l9,5.8h9l6.3-4.5l0.5-14.3l11.3-2.3l7,4.8l6.8,2.3l8.5,2.5
		l7.9-2.2"/>
	<path id="path1635" inkscape:connector-curvature="0" class="st29" d="M524.8,1693.1l-18.4-0.3l-8.3-5.4h-2.6l-6.3,3.4l-6.8-0.6
		l-4.8-3.7l-21.6-0.9l-6,4.3l1.1,9.1l-5.7,8l-5.1,3.7l-23.1,0.3l-28.2-8.5l-6.5-6.5l-3.7,0.3l-5.7,6.8l-11.4,3.4l-9.1-3.1l-8-11.4
		l-5.4-12.8l-4.3-1.7l-6.8-0.6l-4.3-4l-2.6-4.6l-6.5-2l-5.4,3.1l-3.4,9.7h-5.7v-5.1l2.8-7.1l4.3-1.7l3.1-6.5l-0.3-2.6l-4.8-5.2"/>
	<path id="path1633" inkscape:connector-curvature="0" class="st29" d="M524.8,1693.1l4.3,27.1l-2.5,7.9l-6.2,2.9l-8.7,7v13.3
		l-2.5,5l8.7,8.3l18.2,2.5l-0.4,7l-4.6,3.7l20.7,16.4l5.8-1.9l30.7-0.4l9.9,7.9v13.7l3.7,2.9l15.7,2.5l5.4-3.7l10.8,3.3l7,4.1
		l5.4-3.7h6.6l7.9,3.7l2.9,14.9l6.6,12c0,0,1.6,2,2.4,2.8c0.8,0.8,1.6,1.1,3.5,2.5"/>
	<path id="path1631" inkscape:connector-curvature="0" class="st29" d="M578.8,1861.5l33.6,1.2l9.9-6.2l9.1-1.7l14.9-12v-8.7
		l-9.1-3.7l-14.5,4.6l-20.3,1.7l-13.7,3.7l-8.7,5.8l-6.2,1.2l-4.1,5l0.8,3.7L578.8,1861.5z"/>
	<path id="path1629" inkscape:connector-curvature="0" class="st29" d="M448.5,1902.9l7.3,5.8l2.9,7l4.9,3.7h5.8l3.7,4.5l0.4,6.2
		l7,2.9l10.3-4.9l2.1-10.3h4.9l8.2-3.7l2.9-0.4l3.3-9l-4.9-5.3l2.1-12.7l2.1-4.5l1.2-5.3l4.9-2.1l1.6-6.2l11.1-2.9l4.1,4.1l5.3-1.2
		l2.5-7.4l-3.7-4.5l0.4-3.3l4.5-2.5l-0.4-8.2l3.3-9.5l4.9-0.4l6.2-4.9l7.4-1.2l0.8,3.7l7,0.8l3.7,5.3v5.3l3.9,4.4"/>
	<path id="path1627" inkscape:connector-curvature="0" class="st29" d="M637.2,1830.4l3.7-7.9"/>
	<path id="path1625" inkscape:connector-curvature="0" class="st29" d="M839.8,854.8l6.8,1.7l9.2-2.8l7.2-0.4l4.4,3.6l10.3,1.6h8.8
		l18.3,7.6l7.2,4.4l9.5-0.8l13.5-9.9l18.7-2l9.9-4.8l7.6-0.8l6,1.2"/>
	<path id="path1623" inkscape:connector-curvature="0" class="st29" d="M621.9,1110l3.5,0.5l5.2-1l5.9-5.2l10.8-3.8l11.1-6.9
		l3.8-6.6l1-8.3l3.1-4.5l7.3-5.2l4.9-6.3"/>
	<path id="path1621" inkscape:connector-curvature="0" class="st29" d="M734.9,980.1l-11.8-2.5l-9.6,4.1H707l-2.5-8.8l1.9-4.4
		l-2.2-6.6l-12.3-1.6l-4.1-5.2v-2.7l-11.8-9.8l-9,0.5l-5.2-2.2v-8.2l3.3-3.3l0.8-9.6l-6.3-2.7l-5.7,3l-6.6-0.3l-14.5-10.7l-15.6-1.4
		l-6.8,4.4h-6.6l-6.1-1.3"/>
	<path id="path1619" inkscape:connector-curvature="0" class="st29" d="M1008.1,533.7l-12.1,0.2l-3.9,1.4l-4.6,6l-5.3,2.1l-2.5-1.4
		l-11.6-6l-0.4-15.1L957,511l-4.2,1.1l-5.3,6l-6-2.1l-10.9-8.1l-1.1-10.2l-12.3-5.6l-14.1-0.7l-19,4.9l-6.3-2.8l-9.5-8.8l-1.4-14.1
		l4.2-8.8l-1.1-13.4l-7.7-8.2"/>
	<path id="path1617" inkscape:connector-curvature="0" class="st29" d="M823.2,171.3l-3,7.8l0.4,4.9l4.9,4.6l8.1,0.4l12.7,7l3.9,9.1
		l-1.1,10.2l-5.6,5.6v4.6l4.9,4.6l1.1,13l13.4,18.6l1.4,15.8l-1.4,9.1l0.7,6.7l6,5.6l25.7,7.4l1.8,6l-1.1,18.3l-2.8,2.8l2.8,7
		l-1.4,7.7l-10.2,5.6l-8.4,2.1l-5.6,7l0.4,7.4l-2.8,8.8l-5.3,2.5l-3.2,6l0.7,13l1.4,14.8l5.3,9.5l-0.4,7.4l-3.8,8"/>
	<path id="path1615" inkscape:connector-curvature="0" class="st29" d="M977.1,853.4l8.6-5.3l11.3-5.3l9.8,0.8l7.2-4.5l6,0.8
		l4.9,6.8l18.4,5.6l6.8-4.9l17.3-1.5v-4.1l-1.9-4.9l-7.2-5.6l-1.5-4.5l1.1-4.9l-4.1-1.5l-4.9,3l-7.2-6.4l0.8-13.5l-1.5-6l-19.2-20.7
		h-9l-2.3,3.4l-5.3-0.8l-6-10.9l-3.4-16.6l-6.8-2.6l-7.9-0.8l-9.4-10.9l-0.8-24.2"/>
	<path id="path1613" inkscape:connector-curvature="0" class="st29" d="M971,713.3l9.3-15.1l1.3-12l8.4-9.3l3.5-8.4l-2.7-12.9
		l7.1-25.7l12.4-11.5l2.2-7.1l-0.9-10.6l4.9-15.1v-12l-7.5-8.9l-1.3-7.5l3.1-6.2l-3.1-9.3l0.4-7.9"/>
	<path id="path1611" inkscape:connector-curvature="0" class="st29" d="M1238.5,673.8l-11.4-9.9l-8.4-13h-8.4l-13,4.6l-13-6.1
		l-16-16.8l1.5-37.4l-4.6-2.3l-26.7,13l-13.7-3.8l-16.2-24.4l9.2-9.9l1.5-11.4"/>
	<path id="path1609" inkscape:connector-curvature="0" class="st29" d="M1309.2,372.2l-12.8-1.2l-13,9.2l-31.3-19.1l-20.6,2.3
		l-35.1-1.5l-9.9,13.7l-19.8,10.7l-12.2,12.2v6.1l9.2,3.1l1.5,6.1l-6.1,22.1l-6.9,11.4l6.1,16l1.5,16l25.2,6.9l2.3,10.7l17.5,8.4
		v5.3l-3.8,8.4l3.1,17.5l11.4,20.6v7.6l-11.4,1.5l-18.3-19.1l-17.5-0.8l-7.6-6.1l-15.3,3.8l-12.2,9.2l-13.9,3.1"/>
	<path id="path1607" inkscape:connector-curvature="0" class="st29" d="M1008.1,533.7l10.6-10.3l6.9-2.9l7.9,1.4l17.2-1l13.6-6
		l12.2-1.2l4.5,2.1l13.8,0.2l11.9,9.5l0.7,9.1l-0.5,10.7l12.4,10.8"/>
	<path id="path1605" inkscape:connector-curvature="0" class="st29" d="M929.6,497.6l1.8-1.3l3.5-6.7l7.8-16.4l12.9-21.6l16-7.8
		l-1.3-7.3l-15.1-2.2l-12.9-6.5l0.4-3.4l11.2-2.6c0,0,1.7-1.7,3.4-2.2c1.7-0.4,18.1,0,18.1,0s3.4,4.3,5.2,4.3h15.5l6.9-3.4l6.5-0.9
		l5.6,4.7l5.2-2.6l-2.2-7.8l-2.2-3.9l6.5-4.7l11.6-0.9l4.3-1.7l-6-12.5l-0.4-9.5l6-10.3l7.8,0.4l3.9,3l9.1-0.4l5.2-3l6,7.3l4.3,9.5
		l10.8,4.3l9.1-3.4l1.7-20.7v-12.9l9.1-7.3l4.3-0.4l2.6,6.5l7.3,3l12.9,0.9l12.5,6l4.3,7.8l0.9,11.6l2.6,8.6l2.3,7.1"/>
	<path id="path1603" inkscape:connector-curvature="0" class="st29" d="M1063.9,370.7l-3.5-4.7l-13.4-1.7l-2.6-14.7l3-12.5l-3.9-8.2
		l8.6-6.9h7.8c0,0,1.3,2.6,4.7,2.6h15.5v-4.7l-5.2-8.2l3-8.6l9.9-3.4v-3.9l-3.9-4.3l-0.4-7.8l3-3.9L1085,268l-12.5,11.2l-10.3,1.7
		l-2.2-10.3l3.9-5.2l0.9-6.5l-4.7-4.7l-12.1,3.4h-9.9l-5.6,2.2l-5.6-4.7l5.2-9.9v-10.3l-6.5-4.7l3-6.9V209l-3-1.7l3.4-6.5l-4.7-3.9
		l-6.9,4.7h-11.2l-9.9-6.5l-9.1,0.9l-11.6-9.5l-4.7-7.8l-3.4-1.7l-1.3-7.3l-3-1.7l-7.3,9.1l-14.7,2.6l-6-9.5h-9.1l-0.9-8.2l-6.9-7.3
		l-22,0.9l-10.3-2.6l-10.6-7"/>
	<path id="path1601" inkscape:connector-curvature="0" class="st29" d="M734.9,593.4l-4-3.1l-5-1.8l-3.8-3.1l-5.2-0.1l-5.7,1.9
		l0.2,4l2.2,4.9l0,3.7l-6.6-0.6l-6.9,1.3l-10.1,0.8l-6.4-2.8l-4.5-4.7l-4.5-8.4l-8.9-2.2l-9.6,1.7l-6.9,3.2l-8.8-2l-16.8,10.1"/>
	<path id="path1599" inkscape:connector-curvature="0" class="st29" d="M440.4,1710.3l1,14.4l4.3,13.9l4.8,5.3l-5.3,5.8l-13.4,5.8
		l-2.9,6.2l2.9,6.7l14.9,4.8l1.4,8.1l-4.8,14.4l-6.7,18.2l4.8,14.9l-1,20.6l-11,13.9L427,1877l1.9,7.2l3.4,1l8.6-6.7l3.4,1.4
		l4.8,13.4l-0.5,9.6l-6.2,1.9l-6.7-4.3h-15.3l-10.1-1.4l-17.3,4.8l-8.6,7.2l-12.5,1.9l-8.1,9.1l-2.4,14.9l-14.4,12l-2.9,8.1l4.3,5.3
		h8.6h10.1l7.2,4.3l1.4,9.1l-5.8,12l1,9.6l6.2,11c0,0,2.9,3.4-1.4,6.7c-4.3,3.4-5.3,4.3-5.3,4.3c-0.1,1-0.1,1.8-0.3,2.1
		c-0.1,0.3-0.6,1.4-0.8,1.7"/>
	<path id="path1213" inkscape:connector-curvature="0" class="st29" d="M960.5,909.1l-5.9-1.7l-3.5,1l-3.5-3.1l-4.5,2.8l-10.4,6.6
		l-10.8,2.8l-3.5-0.7l-17.4-1.4l-5.6,3.1l-1,5.9l7.3,12.5l-1,18.4l-3.5,12.5l-11.5,4.9l-8-1.4l-12.2,0.7l-9.4,5.2l-9,1l-14.6,6.3
		L820.2,996l-8-1l-2.4-2.4h-3.5l-3.1,2.8l-12.8,4.2l-1,2.1h-4.2l-2.8-4.2l-4.2-2.4h-19.4l-5.6-4.9l-0.3-8l9-11.5l-1.7-4.5H755
		l-5.9,2.1l-20.8,17l-15.6,7.6l-12.2,2.1l-18.8,36.8l2.4,4.2l2.1,8.7l-7.3,12.5l-0.3,5.6l8.3,0.7l5.9,2.8l3.5,8.3l4.9-1.4l8.3,1
		l18.8,15.6l4.2,19.1l3.8,3.1l9.7-2.1l8,5.9l-2.8,6.6l2.4,10.1l8.3,1l13.9-9.4l7.3,2.8l2.8,8.7c0,0,1.1,4,1.1,4.5"/>
</g>
<g id="layer3" transform="translate(107.81721)" inkscape:groupmode="layer" inkscape:label="Limits">
	<path id="path1050" inkscape:connector-curvature="0" class="st30" d="M603.9,1598.3l-2.8-11.7l-6.1-5l-5,6.1h-8.3v-4.4l5-3.9v-9.4
		l-2.2-3.3v-7.8l7.2-3.9l-1.7-17.8l-3.9-3.3l-0.6-11.7l2.2-11.7l5-4.4l-1.7-11.7l-3.9-1.7l-16.1,1.7l-5-3.3l-2.8-10v-4.4l-2.2-3.9
		l-7.8-1.1l-9.4-7.8l-6.7-0.6l-7.8-5.6l-6.1-11.7l0.6-6.7l3.9-7.8l-1.7-8.9l4.4-6.1l7.8-3.9l12.2-14.4l0.6-5.6l9.4,1.1l9.4,16.1
		l8.3,1.7l3.3,10l3.3-0.6l3.9-7.2v-5.6l6.7,0.6l3.3,6.7h6.1l2.2,6.1l5,1.1l4.4-1.7l10,5.6l2.8,7.8l7.8-1.7l1.7-2.8l0.6-4.4l5,1.7
		l6.7,5l3.9,16.1l7.8,15.5l8.3,6.7l4.4,13.9l9.4-5.6l1.7-7.2l3.3-5.6l8.9-3.3v-3.3l12.8-3.3l14.4,3.9l6.1,6.1l12.2-0.6l6.1,3.3v8.9
		l-3.3,4.4l-1.1,10l5.6,2.2l1.1,7.2l10-6.1c0,0,3.9-6.1,7.2-11.1c3.3-5,7.8-6.1,7.8-6.1l9.4,2.2l5.6-6.7v-8.9l-7.2-7.2l5.6-6.1
		l-0.6-22.8h-5.6l-8.3-3.3h-13.3l-5,4.4l-7.8-2.2l-2.2-2.8l-8.9-4.4h-11.7l-13.3-3.9l-7.8-5.6h-10l-6.1-4.4l-0.6-6.7l4.4-3.3
		l-1.1-13.9l-3.3-5l1.7-5.6l7.8-10l0.6-9.4l-5-5l2.2-8.3l5.6-6.7l-1.1-6.1l-8.9-7.2l1.1-6.1l3.9-3.3l5-13.9l0.6-11.1l-5-8.9l1.1-5
		h-5.6l-1.7,9.4l-3.9-3.9l2.8-11.7l-3.9-4.4l-8.9-6.1l-1.1-7.8l-3.3-5l3.3-10l3.9-1.1l1.7-6.7l3.3-2.8l-1.7-8.9l-5-6.7l-1.1-11.7
		l-5.6-20l3.3-21.6l1.1-9.4l-3.3-4.4l5-2.2l5.6,2.2v6.1l7.8-3.3l3.9,1.7l1.1,11.1l5,3.9h12.8l5.6-4.4l-1.1-11.1l-1.7-7.8l5-6.1
		l5-0.6l11.1-5.6l2.8-8.3l6.7-8.9l6.7-2.8l8.3-15v-5l-3.3-3.3l0.6-2.8l7.2-3.3v-4.4l3.9-5l-1.7-6.7l-3.3-3.3l6.7-3.9l10.5,2.2
		l6.1-3.9l16.1,0.6l4.4,6.1l5-1.1l2.8-5l10.5-2.2l5,3.9l2.2-3.9l14.4,1.1l7.2,3.3l4.4-4.4l11.7,1.7l11.1,11.7l11.1,0.6l11.7,8.9
		l12.8-0.6l6.1-8.3l8.9-2.2l3.9-7.8l2.2-12.8l6.1-11.1l-3.9-7.2l5.6-6.7l12.8-3.9v-5.6l-7.2-4.4c0,0,7.2-7.8,8.3-10.5
		s-2.2-12.2-2.2-12.2l5-1.1l7.2,10.5h12.8l11.7,6.7l5.6-7.8l-1.1-7.8l-6.7-4.4l-0.6-7.2l-7.8-8.3l-2.8-9.4l-5-6.1l5-8.9l4.4-4.4
		l1.7-9.4l-1.7-10.5l5-7.2l6.7-2.8l7.8-6.1l4.4,1.7l3.3,7.2h5.6l5.6-7.8l-1.1-5l-12.2-2.2l-5.6-6.7l2.2-5l10-1.1l1.7-4.4l5-6.7
		l0.6-4.4l-3.9-3.3l-2.2-5.6l6.1-3.9l-2.2-3.9l3.9-5.6l7.8,5.6l5-11.1l5-1.7h8.9l0.6-6.1l-2.2-6.1v-5.6l5.6-6.1l-3.9-6.1l-8.3-2.8
		l-4.4-10.5v-16.1l-2.2-7.2l5-6.1l7.2,1.1l6.1-2.2v-6.7l-8.9-7.8l5-8.3l6.7-6.1l5.6-20l12.8-6.1l2.2-4.4l4.4-2.8l13.3,2.2l11.1-2.2
		c0,0,2.2-3.3,3.9-7.8c1.7-4.4,6.1-5,6.1-5l6.7-1.7l3.3-7.2l10-12.2l14.4-1.7l4.4-2.8l13.9,2.2l11.7-4.4l3.3-16.7l4.4-1.1l1.1-10
		l-2.8-6.7l-7.2-2.8l-7.8-6.7v-6.1l6.1-5.6l-2.2-6.7l8.9-8.9l6.1-0.6l5.6-5.6l-1.1-7.2l6.1-3.9l8.3,0.6l9.4,3.3l12.8-8.3h4.4
		l7.8-7.2l3.9-11.7v-10.5l8.3-6.7l6.7,1.7l2.8-4.4l1.7-7.8l8.3-5v-11.7l5-8.3h9.4l2.8-3.9l0.6-11.1l5-5.6v-6.1l-10.5-5.6l-0.6-7.2
		l-10,0.6l-4.4,8.9l-11.1-4.4l-1.1-5l-8.3,2.8l-10-3.3l-4.4-7.8l-0.6-6.7l-6.7,1.7l-2.8,8.9l2.2,6.7l-3.9,6.1l-4.4-1.1l-0.6-5.6
		l-4.4-6.1l-1.7-10.5l2.2-6.1l-1.7-9.4l-8.9-8.9l-9.4-0.6l-8.9-11.1l0.6-10.5l7.2-8.9l-3.3-19.4l6.1-23.9h2.8l-1.1-5.6l-5.6-4.4
		l-2.8-6.1l-8.9-0.6l-6.7,7.2h-5.6l-5-8.3l3.3-7.2l1.1-21.1l12.2-12.2l4.4-13.9l-2.2-18.3l-10-10l-9.4-0.6l-7.2,11.7l-1.7,12.2h-7.8
		l-3.3-4.4l-10-3.9l-12.8,0.6l-9.4-1.7l-7.8-11.1l-6.1-2.2v-3.3l4.4-1.7l-2.2-5.6l-8.9-4.4v-7.8l6.1-8.3l-3.9-16.1l-5.6-3.3
		l-2.8-15.5l-12.8-1.7l-4.4-5.6l-21.6-2.8l-1.7-3.3l2.8-4.4l-3.9-3.9l-6.1-1.7l0.6-8.9l-6.7-10.5l-3.3-3.9l-2.8-10.5l2.2-4.4
		l-3.3-5.6l-12.2-2.2l-6.7-5l-1.1-6.1l-3.3-5.6h-7.2l-10-5.6l-2.8-2.8l-13.3,1.7l-10,12.8v8.3l-5.6,7.8l-7.2,1.1l-8.3,11.1
		l-1.7,11.7l-10,11.7l-25,10h-13.3l-17.8,2.8l-15.5-1.7l-5.6-4.4l-12.2-3.9l-10-11.7l-5-6.7l-3.3-3.3l-7.8,2.2l-2.8,7.2l-16.1,6.7
		l-8.9-3.3l-13.3,2.8l-6.1,10.5l1.1,7.2l-4.4,7.8l-16.1,7.2l-6.1-0.6l-7.2,3.9l0.6,6.1l-5,1.7l-12.8-0.6l-4.4-7.8l-4.4-0.6
		l-12.2,4.4l-17.8-0.6l-3.9-5l-22.8-0.6l-7.8,5.6l-11.1-5.6l-5-7.2h-3.9l-7.8,7.2l-16.7,2.2l-16.1-5l-3.3-5.6l-10.5-4.4l-16.7-0.6
		l-3.3-3.3l-7.2,2.8l-3.9,6.7l-16.7,8.3l-8.9-0.6l-3.3,3.3l-7.8-0.6l-3.3-4.4l-5-1.1l-4.4-3.3V158c0,0-5.6-6.1-8.3-10
		c-2.8-3.9-11.1-6.1-11.1-6.1l-4.4-7.2l-5,2.8l-3.9,5.6l-7.2,7.2l5,12.8l3.3,3.3l1.1,16.7l4.4,6.7l7.8,1.7l4.4,9.4v8.9l-11.7,7.2
		l-13.3,11.7l-5.6,14.4l-5,0.6l-3.3,3.3v6.7l12.8,4.4l2.2,16.1l8.9,4.4l3.9-1.7l2.8-6.7l11.7-2.8l11.1-11.7h6.7l6.1,7.2l8.9-2.2
		l4.4,10.5l16.1,2.2l6.7-5.6l8.9,0.6l6.1,5l1.1,12.8l7.8,2.8l2.2,8.3v7.2l10.5,2.2l4.4,7.2l8.9-0.6l3.3-2.8h6.7l3.3,6.1l6.1,6.7
		l6.1,0.6l5.6,11.1h7.2l6.1,4.4l-1.1,8.9l-3.9,5l-3.9-3.3L615,368.3l-0.6,20l5,6.7l-3.3,7.2l-6.7,6.1h-7.2l-6.1-4.4l-8.3,3.3
		l-6.1,8.3l-11.7,2.2l-6.7-2.2l-13.3,7.2l-1.1,8.9l5,14.4l-4.4,8.9l-5.6,3.9l-12.8,17.8l-19.4,6.1l-3.9-3.3l-8.3,3.9l0.6,16.7
		l7.2,8.3l-0.6,12.8l-7,5.5l-4.9,2.4v6.4l3.4,3.1v5.8c0,0-4,2.1-5.2,2.7s-0.3,5.5-0.3,5.5l3.4,4.6l-0.3,0.9H487l-1.5-3.4l-11,4.6
		l-3.1,6.7l-5.5,3.4l-1.8,5.8l1.5,9.5l-2.7,2.4l-3.1-0.6l-3.4,2.4v5.8l-4.3,3.4l-3.1-1.2l1.2-3.4l-4-2.7l-7,1.2l-4.3,7H432l-2.1-5.5
		l-4.3,2.1l-3.7,8.2l-6.1,0.9l-7,5.5l-5.5,7.3l-7.9,3.4v5.2h-3.4l-7-3.7l-3.1-11.9l1.8-5.5l-4.6-4l-13.1,1.2l-1.8-1.8L360,604
		l2.1,6.1l3.1,2.7l-1.5,4.6l-3.4-0.6l-0.9-3.4l-3.7-2.7v-1.5l-4.3-1.2l-3.7,3.1l-1.8,7l-6.4,3.4l-1.8,6.1l-4,0.6l-5.8-4.9l-1.5-3.7
		l0.6-7.6l-2.7-1.2l-5.8,2.4l-2.7,6.4l-7.9,5.8l-5.5,0.6l-5.8,7.9l3.4,15.9l3.1,3.7l-0.3,17.4l-1.5,5.8l-3.4,4.3l0.3,5.5l-4.9,3.7
		l-6.4,1.8l-3.1,4.3l-3.1-1.5l-4.6,2.4l1.2,6.1l2.4,3.1l-2.4,1.2l-6.1,6.7l0.3,6.7l4.3,4.6l-2.4,3.1l-3.4,1.8l-3.7-0.9l-3.7,2.1
		l1.2,4.6l5.5,3.4v3.7l-3.7,3.4l1.5,7l-2.4,3.7h-6.7l-2.7-14l0.3-4.9l-4.3-4.6l-8.5,0.9l-5.5,4.3l-1.2,6.7l-3.7,1.8l-1.8,4.9
		l-0.6,13.4l-4.6,6.7v6.7l-6.1,6.1l-5.2,1.8l0.3,2.7l2.4,1.5c0,0,0,5.8,0,7.3s-3.4,6.7-3.4,6.7l3.1,8.5l3.4,3.4l-1.2,11.6l-2.4,1.2
		v10.7l-1.8,4.3l-4,4.6l-0.9,5.8l-4.6,1.2l-7.3-1.8l-0.9-3.7h-4.6l-5.8,5.5l-4.3,11.9c0,0,0.6,22.6,0.6,24.1s-2.4,6.1-2.4,6.1
		l-0.6,20.1l5.8,11.3l-1.5,15.6l-1.5,8.5l-8.2,7.6l0.3,14.6l-3.4,1.5l-2.1,5.2l-4,4.9v3.7l5.5,5.5l-4,7l-4.6,1.2l-2.1,7.3l-9.5,11.6
		l-6.1,1.5l-9.8,6.7l-12.2,1.2l-10.4,8.8l-5.8,0.3l-10.1,11.6v4.3l3.7,2.1v3.4l-1.8,0.9l-0.3,11l5.5,3.7l-4.3,12.2l-5.5,3.4v6.1
		l5.2,4.9l1.5,11.3l8.2,5.8l15.6,0.9l4.9,6.1l4.3,18.6l-0.1,11l-5.4,2.2l-0.7,6.5l4,10.5l2.9,3.3l3.6,15.2l5.1,3.3l-3.6,4.3
		l-3.6-0.7l-8.3,3.6l-5.4,4.3h-6.1l-6.1,7.6v6.1l6.1,8.3l12.3-0.4l12.6-8.3h4l4,2.2h4.7l0.7,9.4l-2.5,4.3v9.4l-4.3,21l-3.6,3.6
		l3.3,5.8l-0.7,9.4l-5.8,3.3l0.4,4.3l6.1,3.3l1.4,7.6l2.5,1.1l-1.1,7.9l-2.5,3.3l-5.8-1.4l-5.4,4.3l-5.8,0.4l-4.3,4.7l1.1,2.5
		l-2.9,3.3l-7.6,2.5l-6.5-2.5l-9.4,4l-1.4,2.5l-9.8,3.3l-3.3-1.8l-6.5,2.5l0.4,2.9l4,0.7l-0.4,5.5l5.5,1.1l1.1,4l-2.2,4.8l-4.4,0.4
		l-0.7,5.9l-2.6,1.5v3.7l8.5,2.6l2.2,5.1l9.6-1.1l2.2-5.1h8.1l2.9,6.2h7l5.5,4.8l1.1,11.4l4,2.6l-2.6,7l-2.2,1.8v5.1l1.5,11.4
		l2.6,2.6l-0.7,7l-6.2,5.5v5.5l-7,3.3l-7-2.2l-2.2-6.6l-4.8-1.8l-1.1-1.5h-3.3l-5.5,4H89l-3.3,4.8l1.1,7.7l8.8,4h8.8l4.4-3.3l7,3.3
		v5.1l-8.1,6.6l0.7,2.9l4,2.6v3.7l-3.7,1.5l-4.8-1.8l-7.7,4.4l-0.4,2.6l-7.7,1.5l-2.6-1.5l-3.3,1.5v3.7l9.6,0.7l7.7-1.5l4,3.7
		l2.9,2.6h4v-5.1l-3.3-3.7l2.6-2.6l4.4-1.5l3.7-4.4l7.4,0.7l4,4v9.9l2.9,7.7l10.3,8.1l14,6.6h3.7l5.1,3.7l1.1,10.7l-0.4,7.7l-3.3,4
		l4.4,5.9l5.5,1.8l3.7-1.8l6.2,0.7l12.5,7.4l2.2,7l7.7,1.1l5.1-1.5l4.4,3.7l3.3,6.2l9.6,2.9l7.4,6.2l0.7,8.5l2.6,2.2v5.1l-4.4,3.7
		l-2.6-0.4l-2.8,1.4l-6.7,1.5l-5.9-1.1l-5.9,1.5l-1.9,3.7l-4.8,0.4l-0.7,5.9l5.9,2.6l0.4,5.6l6.3,5.9l4.4,0.4l-2.2,5.6l-7.8,6.7
		h-4.1l-5.9,5.6l-1.5,3.3l-8.2,4.8h-4.1l-4.4,3l-5.2-1.1l-3-3.3l-1.5-5.9l2.2-4.1l-1.9-3.7h-3.7l-5.9,3l-1.9,5.6l-3.7,1.9h-5.6
		l-3.3-3.7v-5.9l-2.2-3.7h-3.3l1.5-9.3l3.3-1.1l-0.4-4.4l-6.7-6.7l-5.2,3.3h-4.1l-5.6,5.2l0.4,9.6l-4.4,4.1l-4.8,0.7l-3-2.2
		l-6.3,4.1l-3.7,10.8v3.3l-1.9,7.8l-10,3.3l-7.4,0.4l-5.2,5.9l-0.4,4.8l4.8,7.8l-3,4.8l-5.9,1.1l-11.9,11.1v7.4l5.2,8.9v4.8
		l-8.2,5.6l-4.1-0.4l-1.5,4.4l0.7,10l-5.6,3l-4.8,7l2.2,15.6l7.4,4.4l6.7,9.3l5.2,10l6.7,7.4l-3.3,7.8l-9.3,5.6l-5.2,0.4l-2.2,5.2
		l-8.5,4.8h-4.8l-0.7,5.6l5.9,3l8.9,11.1l4.8,9.3l7.8,21.1l4.8,6.3l4.8-4.1l4.4-0.4l5.6,4.1l2.6-0.4l2.2-5.9l9.3-5.9h14.1l5.9,3
		l2.6,8.9l9.3,7.4l2.6-2.2l13.7,13l5.9,2.2l2.6,4.4l0.4,8.9l5.9,4.4l6.7,2.6l4.4,7v6.3l3.3,3.7l5.2,1.9v13.7l6.3,9.3l0.7,13.3
		l8.9,8.5h3.7l2.6,2.6l-2.6,4.8l-8.5,5.2l-5.6,1.9l-1.1,11.5l1.1,7l11.9,2.6l4-3.6l4.9-0.7l5.3-3.5l-0.7-5.6l-2.5-5.6l2.1-2.1
		l1.4-4.6l3.9-0.7l1.1,3.2l7.4,4.9l0.4,4.6l-5.6,1.1l-1.1,4.6l0.7,7.4l3.9,1.4l1.4,6l-2.1,2.8h11.2l8.4-5.6l4.2-7l3.5,0.4l1.4,4.6
		l6.7,0.4l2.8-2.8l1.4,5.6l-8.1,2.8l-1.1,8.1l-4.2,2.1l-1.8,6.3l6,4.9l2.1,21.1l4.2,7l1.4,14.8l6.7,8.1l0.4,19.3l-0.7,3.9v3.2
		l4.6,2.1l1.4,5.6l0.4,3.5l7.7,1.8l7,1.4l6.3-5.3v-3.9l9.5-3.9l3.2-4.6l5.3-2.1l1.4-4.2l7.7-0.4l6,6.3l12.7,6.7l17.2-0.7l12.3,0.4
		l1.4,2.1l12.3,1.1l2.5-1.1l-2.5-6l3.2-10.2l0.4-7.4l6.7-3.9l3.2,3.9l6-1.8l-0.7-14.8l4.6-7.4l6.7-2.8l1.1-9.5l-3.5-16.5l2.8-4.2
		l4.6-1.4l2.8-4.2l1.1-8.8l-2.1-4.9l1.4-3.9c0,0,2.1-0.7,3.2-2.5s2.1-6,2.1-6l-6-6v-8.1l5.3-6.3l1.4-13.4l4.6-4.6l2.8,3.2l5.6-2.8
		l4.9-9.5l8.8-2.1l2.8,2.1l6.7-3.9l3.9-7l10.2-2.1l3.9,2.1l9.5-0.4l7.4-5.6l-2.1-4.9l1.4-8.8l8.1-12.7l11.2-5.6l8.8-9.3
		c0,0,0-7.4,1.4-9.3s11.6-13,11.6-13l9.8-1.4l6.5-4.2v-4.7l-6.5-4.7l-11.2-1.4l-1.4-3.7l7-0.9l4.2-3.7l-7.9-5.1l2.8-3.3l0.9,2.8
		l12.1,6.5l3.3-2.3l-1.9-8.4l10.7-12.6l13.5-6l8.8,2.8l7.9-2.3l-1.9-3.7l3.3-7.9h9.8l9.3-7l4.2-14.4l-2.3-11.6l7-12.6l7.4-2.8
		l4.7,1.9l5.1-1.9l-2.3-16.3l0.5-11.6l-4.2-11.2l-6.5-2.3l-5.1-9.8l1.4-7.4l3.7-1.4l0.9-6.5l-3.7-4.7l-7.9-1.9l-0.5-6.5l5.6-3.3
		v-7.9l-7.4-4.7l-1.4-13.5l-0.5-9.8l7.4-11.6l4.2-1.4v-4.2l-13.5-6.5l-0.5-3.3l4.7-3.7l4.2,0.9l6.5-5.6l-6-3.3l4.2-2.8l0.5-3.7
		l-4.7-2.8l-6,3.3l-10.7-3.3l-1.4-5.6l-4.2-2.3L603.9,1598.3z"/>
	<text transform="matrix(1 0 0 1 433.1828 1222.3477)" class="st27 st28">Dhamtari</text>
	<text transform="matrix(1 0 0 1 295.2734 1209.4214)" class="st27 st28">Balod</text>
	<text transform="matrix(1 0 0 1 118.4706 1067.4812)" class="st27 st28">Raj Nandagaon</text>
	<text transform="matrix(1 0 0 1 345.4391 1048.7502)" class="st27 st28">Durg</text>
	<text transform="matrix(1 0 0 1 467.7675 1020.467)" class="st27 st28">Raipur</text>
	<text transform="matrix(1 0 0 1 368.7729 882.5806)" class="st27 st28">Bemetara</text>
	<text transform="matrix(1 0 0 1 435.9476 667.4437)" class="st27 st28">Mungeli</text>
	<text transform="matrix(1 0 0 1 558.2766 712.875)" class="st27 st28">Bilaspur</text>
	<text transform="matrix(1 0 0 1 487.2139 520.8965)" class="st27 st28">Gaurela-Pendra </text>
	<text transform="matrix(1 0 0 1 487.2139 550.8965)" class="st27 st28">Marwahi</text>
	<text transform="matrix(1 0 0 1 647.3738 322.5516)" class="st27 st28">Koriya</text>
	<text transform="matrix(1 0 0 1 283.2122 766.6161)" class="st27 st28">Kawardha</text>
	<text transform="matrix(1 0 0 1 725.8618 599.0322)" class="st27 st28">Korba</text>
	<text transform="matrix(1 0 0 1 747.7825 780.7576)" class="st27 st28">Janjgir-</text>
	<text transform="matrix(1 0 0 1 747.7825 810.7576)" class="st27 st28">Champa</text>
	<text transform="matrix(1 0 0 1 586.561 911.5728)" class="st27 st28">Baloda Bazaar</text>
	<text transform="matrix(1 0 0 1 918.902 746.1097)" class="st27 st28">Raigarh</text>
	<text transform="matrix(1 0 0 1 634.6457 1036.7305)" class="st27 st28">Mahasamund</text>
	<text transform="matrix(1 0 0 1 901.0187 480.1875)" class="st27 st28">Surguja</text>
	<text transform="matrix(1 0 0 1 1117.5985 519.4811)" class="st27 st28">Jashpur</text>
	<text transform="matrix(1 0 0 1 963.4504 241.9414)" class="st27 st28">Balrampur</text>
	<text transform="matrix(1 0 0 1 802.2291 312.6531)" class="st27 st28">Surajpur</text>
	<text transform="matrix(1 0 0 1 243.5812 1590.1465)" class="st27 st28">Narayanpur</text>
	<text transform="matrix(1 0 0 1 431.2785 1527.2734)" class="st27 st28">Kondagaon</text>
	<text transform="matrix(1 0 0 1 259.879 1386.0408)" class="st27 st28">Kanker</text>
	<text transform="matrix(1 0 0 1 445.1828 1714.3477)" class="st27 st28">Bastar</text>
	<text transform="matrix(1 0 0 1 300.8102 2006.339)" class="st27 st28">Sukma</text>
	<text transform="matrix(1 0 0 1 336.6981 1816.5835)" class="st27 st28">Dantewada</text>
	<text transform="matrix(1 0 0 1 155.9337 1806.0629)" class="st27 st28">Bijapur</text>
</g>
</svg>
